<?xml version="1.0" standalone="no"?>
<!DOCTYPE svg PUBLIC "-//W3C//DTD SVG 1.1//EN" "http://www.w3.org/Graphics/SVG/1.1/DTD/svg11.dtd" >
<svg xmlns="http://www.w3.org/2000/svg" xmlns:xlink="http://www.w3.org/1999/xlink" version="1.1">
<metadata>
Created by FontForge 20170924 at Thu Mar 19 04:00:50 1998
 By www-data
Adapted by Jon Bernhardt in 1996 from the 1991 font by Cowan Design Associates. Based on the famous handwriting of Matt Groening. I added many punctuation characters.
</metadata>
<defs>
<font id="AkbarPlain" horiz-adv-x="673" >
  <font-face 
    font-family="Akbar"
    font-weight="400"
    font-stretch="normal"
    units-per-em="1000"
    panose-1="0 0 4 0 0 0 0 0 0 0"
    ascent="800"
    descent="-200"
    x-height="429"
    cap-height="800"
    bbox="-139.006 -273 1222 1195.07"
    underline-thickness="20"
    underline-position="-143"
    unicode-range="U+0020-2122"
  />
<missing-glyph horiz-adv-x="500" 
d="M63 0v805h375v-805h-375zM125 63h250v680h-250v-680z" />
    <glyph glyph-name=".notdef" horiz-adv-x="500" 
d="M63 0v805h375v-805h-375zM125 63h250v680h-250v-680z" />
    <glyph glyph-name=".null" horiz-adv-x="0" 
 />
    <glyph glyph-name="nonmarkingreturn" horiz-adv-x="301" 
 />
    <glyph glyph-name="space" unicode=" " horiz-adv-x="301" 
 />
    <glyph glyph-name="exclam" unicode="!" horiz-adv-x="255" 
d="M236 750q0 -11 -18 -128q-22 -143 -46 -227q-34 -120 -66 -121q-28 -1 -41 29q-10 21 -11 62l38 305v141q0 26 18 66q20 46 41 46q82 2 85 -173zM172 35q1 -98 -64 -100q-29 -1 -50 29q-24 35 -26 74q-1 33 17 66q21 38 52 38q43 0 60 -34q10 -23 11 -73z" />
    <glyph glyph-name="quotedbl" unicode="&#x22;" horiz-adv-x="430" 
d="M366 752q1 -36 -7 -92q-12 -87 -34 -87q-32 0 -32 86v18q0 23 -1 33q0 105 37 106q24 1 32 -19q4 -10 5 -45zM195 754q-3 -74 -7 -108q-12 -108 -41 -109q-17 -1 -26 47q-7 35 -8 155q-1 80 47 82q32 1 35 -67z" />
    <glyph glyph-name="numbersign" unicode="#" horiz-adv-x="960" 
d="M926 154q-37 0 -113 13q-35 6 -62 6q-45 0 -64.5 -17.5t-19.5 -60.5q0 -15 3 -47l4 -44q0 -36 -12 -56q-9 -15 -27 -26q-25 27 -31 95q-4 53 -9 106q-9 50 -43 50q-43 0 -59 -11q-21 -13 -21 -53q0 -56 4 -80q0 -37 -6 -50q-9 -18 -36 -18q-35 0 -40 52q-2 33 -6 101
q-2 31 -16 41q-8 5 -21 6q-8 0 -19 -1q-20 -2 -46 -5h-123q-38 -6 -54 -6q-53 0 -93 33q13 28 59 51q42 20 76 20h158q45 0 59 13.5t14 58.5v33q0 60 -17 76q-9 8 -23 8q-11 0 -35 -6q-52 -13 -80 -14q-40 -2 -67 18q-18 13 -19 32q-1 25 128 41q72 9 101 34q16 14 18 103.5
t50 132.5q20 -14 29 -27.5t9 -28.5q0 -13 -3.5 -39.5t-3.5 -39.5v-28q0 -29 5 -43t22 -14q53 0 71 10q25 15 26 62q1 65 6 94q11 60 40 61q30 1 31 -90.5t29 -118.5q6 -5 55 -9q30 -2 158 -4q0 -7 3 -14.5t5 -22.5q0 -56 -177 -56q-41 0 -58 -18.5t-17 -74.5
q-1 -120 98.5 -122t159.5 -50v-56zM592 437q0 22 -1.5 27t-12.5 5q-120 0 -120 -121q0 -40 13 -55t51 -16q44 -1 60 26q11 20 11 68q0 17 -1 27v39z" />
    <glyph glyph-name="dollar" unicode="$" horiz-adv-x="565" 
d="M552 216q0 -155 -166 -155q0 -67 3 -70q0 -90 -63 -91q-50 -1 -50 64v27q0 32 -7 50q-10 25 -42 36q-91 32 -111 42q-85 42 -86 90q-1 31 11 44t42 14q6 0 66 -33q70 -38 71 -39h17q3 12 3 25v29q0 37 -82.5 98.5t-83.5 146.5q-1 59 35 117q33 55 85 88q37 23 49 71
l12 74q7 34 35 35q26 1 33 -35q3 -18 4 -48q0 -11 -1 -22v-19q0 -18 3 -24.5t26 -15.5q70 -28 118 -59v-73h-56l-69 39q-6 -3 -15 -6v-174q104 -37 151 -78q68 -57 68 -148zM230 435q-6 33 -7 54q0 8 1 23q0 7 2 22q0 16 -7 40q-43 -65 -43 -75q0 -38 51 -69zM436 211
q0 42 -75 90l2 -67q1 -17 -3 -47h62q6 2 10 4.5t4 19.5z" />
    <glyph glyph-name="percent" unicode="%" horiz-adv-x="703" 
d="M312 662q0 -76 -57 -105q-41 -21 -120 -21q-33 0 -55 27t-22 66q0 47 34 89q48 60 142 60q43 0 63 -42q15 -31 15 -74zM609 771q0 -72 -76 -213q-65 -112 -130 -225q-6 -12 -55 -85q-35 -54 -60 -117q-12 -32 -38 -146q-15 -62 -43 -62q-18 0 -36 29t-18 49q0 109 44 214
q33 80 125 223q71 111 116 198q42 85 84 169q18 34 33 34q54 0 54 -68zM694 176q0 -62 -64 -112q-57 -44 -105 -44q-36 0 -57 37q-18 31 -18 75q0 89 32 126q29 34 96 34q116 0 116 -116zM228 663q0 6 -10 16.5t-14 10.5q-13 0 -32.5 -17t-19.5 -21l4.5 -10.5t6.5 -18.5h33
l21.5 21.5t10.5 18.5zM606 179q0 9 -13 19t-21 10q-15 0 -29.5 -22.5t-14.5 -37.5q0 -6 33 -23q0 1 30 29q15 15 15 25z" />
    <glyph glyph-name="ampersand" unicode="&#x26;" horiz-adv-x="747" 
d="M723 300q1 -26 -55.5 -75t-57.5 -61q0 -7 16.5 -22.5t17.5 -36.5q1 -32 -18 -53t-51 -22q-18 -1 -39 15q-44 33 -46 33q-160 -118 -269 -119q-83 -1 -134 67q-47 61 -48 146q-1 70 79 165q18 21 81 86q-82 148 -84 263q-1 75 73 125q66 45 144 46q101 1 175 -54
q81 -61 82 -159q1 -78 -63 -145q-90 -74 -136 -111q25 -38 45 -65q49 -66 69 -66q12 0 71 52t80 53q36 1 48 -8q19 -12 20 -54zM433 636q2 76 -77 76q-49 0 -75 -28q-5 -6 -17 -29q0 -18 20 -64q17 -39 37 -77q61 38 81 58q30 29 31 64zM371 180q-9 10 -49 72q-27 42 -40 43
q-14 0 -50 -48.5t-38 -65.5q0 -27 8 -44.5t30 -18.5q26 -1 73 21q43 21 66 41z" />
    <glyph glyph-name="quotesingle" unicode="'" horiz-adv-x="224" 
d="M141 608q-11 -68 -50 -64q-24 2 -47 103q-4 27 -17 98q11 62 59 65q8 0 18 -2q22 -3 35 -52q9 -35 10 -67q0 -30 -8 -81z" />
    <glyph glyph-name="parenleft" unicode="(" horiz-adv-x="381" 
d="M408 -91q1 -34 -27.5 -62t-62.5 -29q-25 -1 -88 48q-195 149 -197 390q0 25 5 66q24 186 136 438q25 57 40 81q33 56 63 57q23 1 41 -21.5t19 -45.5q0 -7 -43 -105q-123 -280 -125 -461q0 -45 17 -104q19 -64 46 -93q67 -72 121 -106.5t55 -52.5z" />
    <glyph glyph-name="parenright" unicode=")" horiz-adv-x="623" 
d="M563 305q0 -84 -60 -194t-147 -185q-96 -82 -181 -82q-57 0 -57 58q0 17 18 35q89 70 204 175q85 79 87 205q1 66 -37 154q-37 85 -84 136q-81 88 -151 134q-32 19 -96 58q-33 20 -33 41q0 25 19 50t45 25q91 1 220 -125q101 -100 164 -206q88 -150 89 -279z" />
    <glyph glyph-name="asterisk" unicode="*" horiz-adv-x="604" 
d="M584 549q1 -32 -67.5 -33t-69.5 -22q0 -5 8.5 -20.5t8.5 -21.5q0 -17 -22 -41.5t-39 -24.5q-20 0 -58.5 39.5t-46.5 40.5q-11 0 -59 -23q-42 -20 -57 -22q-12 0 -18 7q-2 5 -4 20q0 18 42 117q0 23 -67 52t-68 46q0 5 12 19q17 15 38 16q19 1 49 -10q64 -23 76 -25
q11 0 42 37t42 38q16 0 29 -30l27 -60q20 -35 51 -42l125 -30q25 -7 26 -27z" />
    <glyph glyph-name="plus" unicode="+" horiz-adv-x="656" 
d="M632 388q0 -32 -86 -57l-112 -30q-23 -11 -27 -58q-2 -41 -5 -81t-27 -40t-27 46q-2 42 -5 84q-7 46 -41 46h-158q-20 0 -49 18.5t-29 37.5q0 27 32 41q24 11 56 11h148q22 30 25 127q2 79 33 79q30 0 30 -78v-40q1 -81 33 -81q11 0 66 13.5t74 13.5q25 0 47 -14.5
t22 -37.5z" />
    <glyph glyph-name="comma" unicode="," horiz-adv-x="309" 
d="M239 113q1 -70 -68 -161t-128 -91q-19 0 -31 15q-8 14 -10 24q0 8 28 43q19 23 71 93q1 2 50 92q17 31 40 32q47 1 48 -47z" />
    <glyph glyph-name="hyphen" unicode="-" horiz-adv-x="570" 
d="M504 276q-86 -41 -113 -50q-71 -24 -169 -24q-49 0 -105 21q-71 27 -73 72q22 36 40 38q7 0 32 -8l35 -12q18 -5 33 -7q5 0 10 -1h15q70 0 214 14q12 0 27 -9q34 -20 54 -34z" />
    <glyph glyph-name="hyphen" unicode="&#x2010;" horiz-adv-x="570" 
d="M504 276q-86 -41 -113 -50q-71 -24 -169 -24q-49 0 -105 21q-71 27 -73 72q22 36 40 38q7 0 32 -8l35 -12q18 -5 33 -7q5 0 10 -1h15q70 0 214 14q12 0 27 -9q34 -20 54 -34z" />
    <glyph glyph-name="period" unicode="." horiz-adv-x="303" 
d="M231 100q0 -47 -33 -81.5t-80 -35.5q-36 -1 -46 12q-6 10 -7 49q-1 35 30.5 77t70.5 43q27 1 46 -18t19 -46z" />
    <glyph glyph-name="slash" unicode="/" horiz-adv-x="559" 
d="M529 682q1 -35 -80 -145q-39 -53 -80 -102q-7 -60 -68 -130q-91 -105 -130 -204q-9 -36 -28 -109q-9 -33 -52 -33q-37 0 -58 43q-16 32 -17 75q0 7 22 63q67 169 155 305l141 219q40 60 49 71q37 43 71 43q30 0 52 -32.5t23 -63.5z" />
    <glyph glyph-name="zero" unicode="0" 
d="M410 39l-20 -2h-21q-112 0 -210 81.5t-115 191.5q-11 72 -12 92l-1 22q-6 123 59 268q59 132 145 132l77 -14l135 -23q64 -11 121 -103q50 -78 63 -154q12 -68 12 -119q0 -137 -50 -236q-61 -124 -183 -136zM191 338q5 -39 60 -122q48 -74 98 -75q69 -2 109 113
q36 105 36 216v35q-3 12 -5 32q-2 17 -63 100q-54 74 -104 77q-70 -6 -102 -110q-31 -99 -32 -210q-1 -32 3 -56z" />
    <glyph glyph-name="one" unicode="1" 
d="M634 70q0 -25 -20 -42.5t-46 -17.5h-263q3 0 -28 6q-36 8 -82 13q-65 6 -144 6q-3 14 -8 28q-4 10 -4 15q0 45 46 45q15 0 56.5 -7t62.5 -7q90 0 90 118q0 92 -21 251q-13 90 -26 181q-3 3 -9 3q-8 0 -63.5 -45t-77.5 -45t-40 17.5t-18 36.5q0 8 36 50q43 51 89 84
q63 44 119 44q28 0 55 -51q33 -62 33 -157v-263q2 -60 6 -104q9 -104 30 -111q18 -6 50 -6q15 0 47 2t47 2q83 0 83 -46z" />
    <glyph glyph-name="two" unicode="2" 
d="M347 440q26 48 52 95q35 64 36 97q0 14 -4.5 29t-28.5 31l-29 19q-43 0 -103 -65l-132 -143q-18 0 -41 23.5t-27 42.5q0 22 73 101q59 63 96 94q67 57 115 57q36 0 65 -18l58 -37q29 -19 47.5 -57t19.5 -75q1 -98 -127 -336l-68 -126q0 -9 17 -10l21 3l26 4h60l41 2
q40 2 64 -29.5t26 -72.5q0 -8 -42 -23q-43 -11 -112 -18q-23 0 -67 -3t-66 -3q-16 0 -50.5 -6.5t-53.5 -6.5q-21 0 -28 23q-7 35 -7 63v15l1 16q75 139 168 314z" />
    <glyph glyph-name="three" unicode="3" 
d="M161 98q0 10 7.5 13.5t25.5 6.5l64 -5q45 -3 124 63q75 63 75 98q0 28 -48 60.5t-78 32.5l-78 -29q-13 -3 -25 -6q-6 0 -19 -2q-8 0 -10 2l-21 9q-10 9 -11 46q0 19 4 23.5t79.5 50.5t94.5 64q63 59 64 148q0 9 -19.5 22t-37.5 15q-55 0 -96 -11l-94 -25q-25 0 -47 46
q-3 7 -5 24q0 19 18 29q36 14 102.5 28t103.5 14q10 0 14 1q65 0 96 -33l52 -55q21 -22 24 -51q0 -82 -46 -147l-61 -72v-9q37 -7 93.5 -56.5t56.5 -107.5q1 -108 -99 -194q-96 -83 -205 -83q-35 0 -66 32t-32 58z" />
    <glyph glyph-name="four" unicode="4" 
d="M182 242q-28 0 -55 20t-28 75q0 8 56 130q61 133 110 228q54 105 72 105q23 0 66 -18q48 -19 52 -37q8 -38 10 -125q0 -31 2 -115q3 -79 3 -105q0 -5 11 -11l46 -6q15 0 32 -38q14 -33 15 -52q1 -11 -24 -13l-60 6q-12 0 -12 -6l4 -91l4 -114l6 -55q0 -12 -3 -15t-9 -5
q-63 0 -85 40q-12 22 -23 101q-13 94 -14 122q-1 15 -20 16zM261 359l56 6q25 0 30 7q3 4 8 21l1 14l1 27l-1 16v133q0 23 2 35q0 8 -7 11q-47 0 -77 -49q-23 -37 -40 -111q-11 -58 -23 -116h18z" />
    <glyph glyph-name="five" unicode="5" 
d="M341 800q45 0 72 -4l44 -3q17 -1 68 7l20 -14q13 -9 14 -50q0 -51 -14 -60l-20 -8q-26 0 -82 5l-68 6q-68 0 -93 -39q-21 -32 -21 -104q-1 -74 75 -104l140 -39q75 -32 76 -121q0 -118 -50 -173.5t-125 -70.5l-110 -22q-30 -6 -69 -6q-82 0 -83 45q-1 22 10 39l22 35
q264 0 266 115q0 32 -14 69l-58 15q-22 5 -73 7q-35 1 -58 14l-56 31q-15 26 -21.5 51.5t-5.5 47.5l1 61v27q0 19 2 32v64q0 104 55 131q31 15 156 16z" />
    <glyph glyph-name="six" unicode="6" 
d="M365 0q-95 -1 -171 65q-66 56 -107 152q-36 84 -36 126q0 153 84 305q87 157 230 152l29 -1h29l18 1h10l44 -29q22 -15 34 -38.5t12 -39.5q0 -23 -21 -31q-10 -1 -28 -5h-13q-148 0 -193 -28q-62 -38 -64 -172q3 -15 47 -15q43 0 89 9l81 16q123 0 161 -93
q22 -54 22 -203q0 -54 -76 -112t-181 -59zM341 159q39 -1 110 40q44 37 44 83q0 47 -44 60l-19 -5l-29 -1l-47 1l-50 4q-17 1 -54.5 -29t-38.5 -72q0 -20 10 -41q3 -2 25 -14q10 -4 31 -13q25 -12 62 -13z" />
    <glyph glyph-name="seven" unicode="7" 
d="M611 766q15 -10 16 -54q1 -62 -34 -192q-32 -119 -79 -253q-27 -79 -81 -222q-7 -17 -26 -28l-39 -12l-34 -5q-20 0 -31 9q-5 6 -8 24v8l14 38l57 150l89 253q44 126 46 172q0 6 -5 14q-7 21 -94 21q-173 0 -312 -77q-33 18 -40 39l-4 23q0 18 2 24l10 29q10 27 174 52
q133 20 198 21q126 1 181 -34z" />
    <glyph glyph-name="eight" unicode="8" 
d="M547 690q33 -63 40 -104l11 -63q0 -19 -11 -30l-17 -23q-4 -6 -7 -22q0 -16 15 -82l19 -83l4 -40q0 -114 -103 -182q-90 -60 -210 -61q-76 -1 -138 114q-55 100 -56 184q0 39 16 52q-6 52 -29 165q-2 13 -9 40q0 102 92 176q85 68 190 69q58 1 112.5 -29.5t80.5 -80.5z
M168 534q12 -43 21 -61q19 -34 48 -35l26 -1h21q10 0 68 31q36 20 71 39l9 41q4 19 5 51q1 27 -9.5 53.5t-53.5 26.5q-54 0 -130 -54.5t-76 -90.5zM244 287l-4 -32v-24q0 -14 8 -31q3 -13 7 -23q0 -4 10 -21q47 -9 83 -9q129 0 130 106q0 25 -9 49l-18 46q-27 15 -69 15
q-106 0 -138 -76z" />
    <glyph glyph-name="nine" unicode="9" 
d="M308 800q113 1 215 -115q98 -112 99 -228q1 -153 -84.5 -305t-229.5 -152h-30l-29 1l-27 -1l-45 28q-19 12 -34 39q-9 21 -11 40q0 24 20 31q7 1 16 2.5t11 1.5q8 0 14 1q96 7 126 11q54 7 78 22q54 33 54 167q-3 15 -47 15q-36 0 -90 -10l-81 -15q-122 0 -159 94
q-22 53 -23 202q0 71 96 124q84 46 161 47zM316 656q-41 0 -110 -40q-37 -31 -37 -78q0 -57 52 -80l19 5l30 1h22q15 0 26 -2l48 -3q27 -2 60 33.5t34 68.5q1 19 -10 40q-96 55 -134 55z" />
    <glyph glyph-name="colon" unicode=":" horiz-adv-x="277" 
d="M201 472q1 -34 -18 -54.5t-53 -21.5t-61 25t-27 60q0 31 24 52t55 22q46 1 62.5 -17.5t17.5 -65.5zM217 82q0 -41 -18.5 -57t-60.5 -17q-26 -1 -48 29q-20 27 -21 54q-2 77 86 77q60 0 63 -71q0 -12 -1 -15z" />
    <glyph glyph-name="semicolon" unicode=";" horiz-adv-x="364" 
d="M300 525q0 -34 -18 -57t-45 -23q-33 0 -55 28t-22 68q0 29 8 37q11 13 53 13q32 0 55.5 -18t23.5 -48zM320 33q0 -86 -53 -161q-51 -71 -104 -71q-43 0 -78 26t-35 66q0 24 32.5 33t64.5 17q41 14 55 47q11 24 11 58q0 13 -2 36t-2 31q0 42 37 42q17 0 40 -25
q34 -37 34 -99z" />
    <glyph glyph-name="less" unicode="&#x3c;" horiz-adv-x="495" 
d="M462 628q0 -34 -66 -89q-29 -24 -124 -90q-66 -46 -66 -58q0 -27 121.5 -116t121.5 -103q0 -50 -57 -50q-52 0 -169 101l-78 64q-61 54 -61 85q0 48 38 90q27 30 102 83q47 33 130 101q40 32 58 32q24 0 39 -22q11 -17 11 -28z" />
    <glyph glyph-name="equal" unicode="=" horiz-adv-x="691" 
d="M636 547q0 -58 -64 -58q-19 0 -42 5l-23 5q-95 -27 -143 -27q2 0 -22 4q-27 4 -66 6q-56 4 -134 4q-74 0 -74 58q0 73 156 73q74 0 114 -15l198 20q56 -3 78 -21t22 -54zM674 287q0 -60 -105 -80q-80 -15 -289 -15q-81 0 -98 4q-44 11 -44 56q0 60 97 68q71 1 141 2
q64 9 99 9q19 0 32 -2.5t18 -1.5l38 12q41 11 76 11q7 0 20 -17q15 -21 15 -46z" />
    <glyph glyph-name="greater" unicode="&#x3e;" horiz-adv-x="505" 
d="M470 405q0 -53 -136 -166q-106 -88 -166 -88q-15 0 -29 11.5t-14 32.5q0 17 24 33q72 48 150 112q25 21 51 41q9 9 9 17q0 11 -51 59q-86 81 -127 124q-66 69 -66 106q0 19 12 33t29 14q12 0 59 -48q4 -4 110 -116q22 -23 113 -108q32 -29 32 -57z" />
    <glyph glyph-name="question" unicode="?" horiz-adv-x="704" 
d="M674 683q1 -70 -61 -129q-38 -33 -113 -101q-61 -55 -62 -104q0 -5 19 -47q9 -21 10 -45q1 -40 -12.5 -53t-54.5 -14q-22 0 -59 39q-45 47 -45 107q0 80 74 159l162 171q0 37 -60 47q-22 4 -87 5q-116 1 -171 -36q-27 -18 -57 -18q-24 0 -47.5 20.5t-24.5 44.5
q14 22 22 35q85 103 288 103q107 0 182 -39q96 -49 97 -145zM462 29q1 -36 -34 -70t-58 -35q-14 -1 -48 29q-39 34 -39 64q13 16 36 42q40 42 65 42q28 0 52.5 -22t25.5 -50z" />
    <glyph glyph-name="at" unicode="@" horiz-adv-x="1030" 
d="M977 439q0 -99 -74 -239q-76 -144 -152 -175q-67 -27 -245 -27q-255 0 -370 122q-77 80 -77 185q0 269 156 408q136 121 358 121q213 0 318 -125q86 -104 86 -270zM879 469q0 89 -80.5 175t-158.5 86q-207 0 -327 -76q-150 -95 -150 -299q0 -264 341 -264q96 0 145 10
q41 9 67.5 32.5t52.5 48.5q-59 0 -163 140q-48 -68 -121 -108q-67 -37 -127 -37q-69 0 -113 56q-42 51 -42 119q0 142 100 236q84 78 169 78q69 0 122 -20q62 -23 62 -64q0 -21 -6 -29q-1 -1 -22 -15q29 -6 47 -67q27 -90 38 -108q31 -57 94 -57q37 0 58 80q14 53 14 83z
M587 531q-45 0 -76 12t-45 12q-36 0 -91.5 -73t-55.5 -114q0 -62 45 -62q81 0 121 41q24 24 50 90.5t52 93.5z" />
    <glyph glyph-name="A" unicode="A" horiz-adv-x="728" 
d="M371 800q74 1 135 -137q68 -153 87 -242l77 -357l-7 -26q-5 -17 -14 -25t-19 -11l-17 -2q-17 0 -24 2l-20 6v46l1 44q2 69 -18 101t-82 32q-174 1 -217.5 -18.5t-67 -83.5t-85.5 -116l-20 -6l-22 -2q-16 0 -23 10q-3 9 -3 24q0 61 21 116q44 117 90 294q19 72 37 144
q29 93 67 142q51 64 124 65zM248 379l41 6l25 2l66 -5q17 -1 47 9q26 9 68 38q-9 64 -47 156q-37 89 -56 90l-13 1h-7q-64 0 -78 -121t-46 -176z" />
    <glyph glyph-name="B" unicode="B" horiz-adv-x="723" 
d="M350 800q50 0 119 -52t69 -113q0 -53 -14 -90q-12 -42 -57 -74q94 -45 151 -81q52 -33 53 -122q-13 -39 -14.5 -44t-11.5 -25q-50 -101 -153 -153q-92 -46 -213 -46q-87 0 -139 25l-96 46l-12 53l17 23l89 -6q-34 154 -36 240q-1 46 11 66l25 24q-2 9 -9 25q0 2 -9 32
t-9 75q0 197 239 197zM205 647l5 -172q32 8 84 13q42 4 66 14q36 14 80 53l18 52l-18 75q-23 14 -58 15l-80 2q-74 2 -84 -18zM209 329v-188q0 -24 37 -24q24 0 75.5 12t75.5 12l73 27q64 24 81 67l-24 84q-28 19 -113 37q-80 17 -121 17q-39 0 -61.5 -10t-22.5 -34z" />
    <glyph glyph-name="C" unicode="C" horiz-adv-x="684" 
d="M391 800q58 0 152 -49q103 -54 103 -100q0 -9 -7 -17q-94 28 -172 30q-21 1 -44 -3q-7 -1 -18 -3q-4 0 -10 -5q-165 0 -210 -51q-42 -47 -42 -216q0 -129 129 -193q68 -34 243 -67q162 -30 163 -60l-27 -53l-95 -13q-163 0 -281 45q-154 58 -206 185q-36 90 -37 184
q-1 155 101 268q105 118 258 118z" />
    <glyph glyph-name="D" unicode="D" horiz-adv-x="750" 
d="M68 800q56 -12 250 -38q189 -25 260 -60q126 -62 126 -210q0 -115 -29 -187q-35 -86 -122 -142q-64 -41 -300 -163h-185l-13 104q-6 50 -6 97q0 33 -3 97.5t-3 97.5q0 50 1 76l5 129q0 47 6 100q4 32 13 99zM184 666q0 -34 -4 -97q-5 -67 -5 -97q-3 -62 -9 -187
q0 -3 1 -50q0 -17 1 -43q1 -48 10 -97l136 28l190 131q42 37 77 238q0 49 -56 79q-34 19 -118.5 39.5t-109.5 33.5z" />
    <glyph glyph-name="E" unicode="E" horiz-adv-x="810" 
d="M507 810q116 1 118 -60l-25 -54q-88 -34 -191 -46q-54 -6 -74 -45q-15 -30 -13 -88q5 -159 5 -100q210 58 268 59q51 1 51 -37q0 -18 -16 -59l-184 -50q-136 -39 -137 -82q-1 -58 20 -95q25 -45 79 -45q47 0 137.5 15.5t135.5 16.5q94 2 97 -56l4 -7q3 -3 3 -12
q0 -8 -8 -16q-11 -11 -47 -18l-144 -27q-2 0 -83 -10q-17 -2 -46 -4h-29q2 0 -114 4q-51 2 -67 13q-7 5 -13 12t-11 13l-16 26l-1 155q0 75 -19 76l-25 -8q-15 -5 -37 -7q-45 0 -88 32v74q20 5 20.5 21t131.5 17q0 19 -6 114l-6 95q-6 92 64 140q44 31 158 39q44 3 108 4z
" />
    <glyph glyph-name="F" unicode="F" horiz-adv-x="572" 
d="M397 799l67 1l73 3q44 2 60 -18t16 -89q-3 -13 -166 -22q-181 -11 -209 -19q-93 -27 -94 -120q-1 -63 23.5 -86t70.5 -20l69 4l58 5q32 3 54 -5q23 -2 46 -16q22 -10 23 -53q1 -27 -10 -51l-180 -16l-137 13l10 -97l-10 -200q-6 -13 -16 -18.5t-29 -5.5l-27 3
q-15 0 -27 12l-15 22q0 40 -2 76q-3 67 -7 152l-9 148l3 103q3 109 19 154q27 74 108 103q97 35 238 37z" />
    <glyph glyph-name="G" unicode="G" horiz-adv-x="765" 
d="M446 800l58 -5l33 -41q-23 -12 -165 -95q-244 -144 -246 -362q-1 -84 60 -145t145 -61q157 0 320 275q-134 37 -293 37h-23q-27 0 -33 1q-37 1 -39 30q6 51 263 53q92 1 146 -8q48 -8 48 -90q0 -66 -88 -175q-72 -87 -144 -142q-95 -72 -179 -72q-99 0 -189 112
q-85 106 -86 208q-1 156 134 296q115 120 278 184z" />
    <glyph glyph-name="H" unicode="H" horiz-adv-x="812" 
d="M741 785v-233l6 -326q2 -88 -8 -117q-8 -24 -44 -40q-30 0 -47 57q-9 30 -10 79q-1 51 14 98q-92 0 -145 -7q-36 -4 -109 -14q-43 0 -124 16l3 -71q1 -22 -3 -62q-1 -18 -5 -49l-7 -112l-75 -4l-9 151l9 147q-39 0 -65 -6l-31 -14l-17 12l-37 30q28 60 72 80l63 16
q12 38 13 78l4 130v103q0 40 49 42q17 1 29 -6t18 -25l-10 -28l-3 -26q0 -21 5 -37l5 -30l-3 -15l-11 -180h109q52 0 67 5l116 12q16 0 32 -5l57 -18q0 54 11 144l12 98v31q-1 9 -5 25q0 11 -3 24t-12 35l-3 12l48 15z" />
    <glyph glyph-name="I" unicode="I" horiz-adv-x="477" 
d="M297 800h105q12 -19 12 -31q0 -11 -69 -39q-72 -29 -68 -101l2 -32l5 -128q0 -26 2 -76q5 -71 6 -105q0 -38 10 -91q3 -16 13 -60q34 0 73 -17q31 -13 32 -37q1 -12 -24 -50q-8 -13 -12 -19q-8 -11 -20 -14l-40 17q-19 5 -40 7l-101 -6q-73 -4 -105 52q0 42 35 50
q32 7 81 7h30q0 43 -3.5 130t-3.5 130q0 27 -16 161l-8 67q0 35 19 77l-69 -1h-85q-38 0 -38 13q2 6 2.5 9.5t7.5 11.5l17 29q47 34 137 36q43 1 57 2q37 2 56 8z" />
    <glyph glyph-name="J" unicode="J" horiz-adv-x="431" 
d="M338 800h111q12 -17 13 -32q0 -12 -72 -40q-76 -29 -72 -105l2 -35l5 -125l9 -193q4 -85 23 -166q-19 -54 -56 -79t-90 -25t-106 24q-60 27 -83 69q0 37 24 38q14 1 81 -39q62 -37 91 -38q28 -1 44 39q0 110 -11 301q-1 35 -7 110q-5 40 -14 103v20q4 18 19 60l-75 -1
h-63q-63 0 -63 13q0 7 11 25l17 28q47 36 143 37q43 1 60 2q42 2 59 9z" />
    <glyph glyph-name="K" unicode="K" horiz-adv-x="579" 
d="M191 797q34 -12 34 -85q0 -30 -14 -140l-14 -113q0 -42 18 -48q19 -3 80 74l124 158q59 76 76 71l43 -23q16 -8 16 -30q1 -65 -95 -148q-66 -57 -137 -132q17 -17 71 -110l72 -124q18 -30 48 -56l7 -18l4 -23q0 -32 -26 -43l-17 -3q-20 0 -27 5q-30 15 -93 119
q-44 73 -90 127q-40 48 -99 64q-21 -42 -34 -155.5t-39 -139.5l-39 -24l-34 24q19 137 41 369l10 130q11 115 30 182q27 94 68 95z" />
    <glyph glyph-name="L" unicode="L" horiz-adv-x="585" 
d="M148 785l29 10q7 0 14 2q12 2 19 3l17 -3q24 -4 26 -48q1 -15 -2 -31q0 -3 -18 -59q-4 -14 -14 -31l-21 -80l-35 -164q-15 -70 -15 -137q0 -61 56 -88q53 -25 143 -26q72 -1 166 16q18 3 39 8l15 -14q6 -6 10 -28q0 -8 -6 -20l-14 -20q-162 -75 -386 -75h-27
q-59 0 -83.5 8t-33.5 39l9 289q1 29 17 119q23 127 43 201q27 98 52 129z" />
    <glyph glyph-name="M" unicode="M" horiz-adv-x="1241" 
d="M367 785q48 0 87 -90l73 -224q38 -117 98 -200q97 69 155 162q38 60 97 203q50 121 83 122q20 1 50 -26q61 -90 85 -192q10 -44 32 -210.5t58 -270.5l24 -51q13 -28 13 -55q0 -48 -55 -48l-32 3l-26 8q-39 49 -63 154q-15 63 -32 197q-16 130 -28 178q-102 -30 -158 -109
l-96 -135q-58 -66 -149 -66q-67 0 -82 32q-10 22 -50 170q-37 137 -99 244q-99 -65 -149 -185q-34 -83 -58 -235q-20 -129 -45 -130q-22 -1 -73 59q-9 5 -9 32q0 82 53 241q57 170 134 293q81 129 162 129z" />
    <glyph glyph-name="N" unicode="N" horiz-adv-x="859" 
d="M804 724l-14 -227q-13 -83 -15 -106q-6 -56 -6 -97q0 -106 -30 -205q-18 -60 -69 -61q-35 -1 -93 36l-339 434q-4 4 -12 7q-19 0 -28 -83q-5 -50 -5 -100q0 -179 34 -258l-7 -21q-4 -13 -10 -22q-10 -21 -42 -21q-25 0 -51 23l-24 27l-45 214q-10 48 -10 95
q0 122 50.5 214t121.5 93q47 1 155 -126q19 -23 130 -167q104 -136 122 -137q5 0 8 14q0 91 -2 172l-4 161q-3 103 20 162l34 36q17 18 42 19q28 1 51 -25q12 -17 38 -51z" />
    <glyph glyph-name="O" unicode="O" horiz-adv-x="765" 
d="M380 800q118 1 218.5 -136.5t101.5 -316.5q1 -148 -172 -254q-151 -92 -308 -93q-100 -1 -150 117q-37 87 -37 203q0 179 82 317q97 162 265 163zM220 320q-2 -6 -3 -8t-14 -23.5t-13 -39.5q0 -29 30 -62l42 -22q18 -9 57 -11l48 4q62 5 120 108q52 92 53 161
q1 78 -42 144q-49 75 -124 75l-20 -2q-65 0 -100 -99q-32 -93 -34 -225z" />
    <glyph glyph-name="P" unicode="P" horiz-adv-x="542" 
d="M267 800q90 1 168 -88q74 -85 75 -177q1 -100 -78 -160q-72 -55 -175 -56q-62 -1 -99 23l20 -137q11 -74 9 -118l-1 -24q0 -8 -2 -23q-3 -38 -39 -40l-20 2q-12 1 -24 17l-24 31l-36 173q-16 77 -17 113l-5 199q-3 111 81 189q80 75 167 76zM142 525q5 -68 12 -91
q5 -16 80 -17t124 32q56 37 64 108q-30 61 -59 83q-34 27 -96 27q-64 1 -97.5 -28.5t-29.5 -85.5z" />
    <glyph glyph-name="Q" unicode="Q" horiz-adv-x="854" 
d="M431 785q120 0 244 -86q134 -93 134 -208q0 -129 -76 -225q-91 -116 -180 -160l-90 -45l-5 -12l-2 -21q0 -58 51 -132l4 -12l3 -15q0 -42 -70 -44q-20 0 -32 27q-5 15 -6.5 23t-7.5 33q-58 112 -144 154l-158 78q-63 53 -63 197q0 173 111 307q117 141 287 141zM140 357
q-1 -84 44 -142q35 -45 118 -96l18 32q20 90 37 90q27 0 71 -94q119 43 188 128q73 90 74 212q1 82 -79 135q-70 47 -156 48q-128 1 -221 -92t-94 -221z" />
    <glyph glyph-name="R" unicode="R" horiz-adv-x="574" 
d="M319 800q59 0 116 -67.5t58 -128.5q1 -99 -84 -164l-155 -118l233 -167q18 -16 28 -73q-30 -45 -65 -46q-34 -1 -76 39l-112 105q-69 64 -127 102l10 -255l-64 -27l-45 61v413q0 133 74 226q79 100 209 100zM129 505l6 -95q78 0 148 52q62 46 101 121q-6 29 -26 62
q-24 41 -48 41q-52 0 -117 -55q-68 -58 -64 -126z" />
    <glyph glyph-name="S" unicode="S" horiz-adv-x="609" 
d="M358 800q56 1 101 -13q66 -20 66 -64q0 -22 -17 -48q-10 1 -23.5 2.5t-16.5 1.5h-17q-14 1 -25 1q-76 1 -137 -24q-55 -23 -56 -81q0 -25 113 -90q139 -80 151 -91q60 -52 61 -169q1 -102 -103 -168q-90 -57 -197 -57q-80 0 -155.5 34t-75.5 95v48q0 27 16 27
q138 -69 308 -69q38 8 50 44q7 22 7 71q0 75 -84 115l-156 74q-84 51 -85 136q-1 69 103 149q99 75 172 76z" />
    <glyph glyph-name="T" unicode="T" horiz-adv-x="576" 
d="M302 800q30 -5 41 -56q12 -56 16 -59l32 -8l52 -4l62 3l49 7l16 -21q9 -12 9 -36q0 -15 -8 -26l-13 -18h-51q-12 1 -32 4l-82 11q-13 0 -21 -3.5t-14 -27.5t-6 -217l1 -329l-62 -20l-51 19l-10 126l-3 125q-1 36 5 173l5 117q1 18 -3 35q-17 26 -44 26l-34 -5l-40 -4
q-38 0 -71 22l-12 17q-1 3 -5 19q0 16 9 24l16 14q29 0 87.5 -6.5t87.5 -6.5q6 0 7 7l-2 14l-1 14l3 19q3 11 11 20q4 7 24 12.5t32 18.5z" />
    <glyph glyph-name="U" unicode="U" horiz-adv-x="773" 
d="M684 762l27 -154l-8 -254q-20 -150 -99 -245q-90 -109 -232 -109q-165 0 -239 122q-47 78 -78 276l-21 353q-1 23 22 35q15 5 19 7l28 7l38 -9q18 -6 31 -22l-5 -107l-4 -140q-5 -176 33 -284q14 -40 36 -70q41 -58 119 -59q64 -1 104 34q25 22 68 92q66 108 66 277
q0 88 -16 168q-7 35 -16 66l13 25q8 10 31 12l33 3q26 0 34 -8z" />
    <glyph glyph-name="V" unicode="V" horiz-adv-x="681" 
d="M607 800l20 -13q9 -5 17 -16q4 -6 7 -21q0 -38 -41 -83q-58 -114 -110 -301q-54 -197 -88 -271q-21 -44 -81 -70q-47 -20 -72 -25q-39 0 -57 59q-17 79 -50 237q-39 205 -69 267l-35 72q-16 34 -17 62q-1 40 18 49q19 5 37 7q14 6 24 6q44 0 79 -114q18 -75 36 -149
q56 -226 84 -254q5 -3 13 -6q17 0 82 184l84 242q43 104 119 138z" />
    <glyph glyph-name="W" unicode="W" horiz-adv-x="1103" 
d="M824 6q-9 -5 -28 -7q-18 0 -36 6l-29 15q-58 59 -72 143l-28 165q-13 77 -87 136q-18 5 -75 -124q-97 -217 -120 -262q-30 -58 -74 -59q-13 0 -28 11.5t-28 36.5q-33 87 -70 250q-38 168 -66 244l-27 74q-1 11 -5 27v14q0 23 14 46q3 4 15 16l35 27l17 3q54 0 73 -133
q1 -10 12 -124q11 -117 16 -146q20 -109 59 -110q11 0 24 7q25 40 74 150q44 98 83 150q48 65 87 78l48 16q36 0 63 -74q19 -51 68 -228q43 -152 57 -169q11 -10 21 -14q43 0 81 218q31 180 31 271q0 60 -10 77q18 63 71 63l33 -5q25 -4 37 -30q5 -14 11 -49l-27 -245
l-69 -225q-29 -94 -52 -136q-37 -68 -99 -104z" />
    <glyph glyph-name="X" unicode="X" horiz-adv-x="634" 
d="M291 494l161 299q4 4 15 7q15 0 31 -21l14 -21q6 -11 13 -23q0 -47 -16 -90q-17 -47 -52 -110l-71 -129q35 -12 95 -110q47 -74 74 -137q24 -55 24 -75q0 -12 -3.5 -22t-22.5 -32.5t-51 -23.5q-39 -1 -66 57l-57 121q-29 62 -59 83l-78 -138q-37 -65 -53 -103
q-20 -15 -28 -19q-13 -6 -33 -7q-17 -1 -28 5q-29 19 -30 54q-1 24 10 52q5 14 11 30q6 12 10 17q46 57 74 114l47 96q-58 43 -103 101q-56 73 -77 156q-15 30 -15 59q0 33 20.5 54t54.5 25l18 2h9q26 0 35 -10t11 -36l-1 -33q-2 -63 31 -112q27 -39 86 -80z" />
    <glyph glyph-name="Y" unicode="Y" horiz-adv-x="697" 
d="M214 791q18 -12 28 -38q7 -28 8 -58q1 -21 -6 -67l-6 -41q0 -51 16 -108.5t52 -61.5l44 -5q47 0 92 80l88 158q57 84 131 84q26 -11 28 -51q1 -15 -13 -68l-13 -51q0 -107 -47 -252.5t-133.5 -250.5t-199.5 -106q-225 -2 -243 53q-12 37 -12 52q0 19 21 20q4 0 56 -12
l64 -15q21 -3 53 -3q178 0 273 194q37 75 42 131l10 105l-67 -107q-39 -51 -107 -51q-77 0 -124 28t-82 97q-48 93 -48 180v59q0 57 1 63q6 33 36 46z" />
    <glyph glyph-name="Z" unicode="Z" horiz-adv-x="647" 
d="M589 704q1 -89 -87 -205q-42 -56 -155 -170q-115 -117 -130 -141q-10 -16 -17 -34q0 -19 45 -24l88 -9l57 -11l44 -3q17 -1 49 7l31 8q16 0 22 -2l44 -16q33 -12 34 -37q1 -23 -60 -44q-46 -16 -184 -18l-64 -1h-62q-98 0 -133 8q-81 19 -82 84q-1 106 86 214
q46 57 171 166q114 99 114 132q0 9 -13 29.5t-57 33.5q-48 14 -96 13l-42 -1q-25 -1 -70 -7q-16 24 -17 47q-1 53 99 72q24 5 67 5q112 1 218 -22q99 -22 100 -74z" />
    <glyph glyph-name="bracketleft" unicode="[" horiz-adv-x="312" 
d="M334 -57q1 -43 -51 -63q-37 -15 -89 -15q-114 -1 -138 20q-27 24 -28 138q-1 145 3 256q0 11 -8 108q-4 59 -15 178v255q0 116 213 119q35 0 72 -24q40 -27 41 -60q1 -21 -11.5 -28.5t-34.5 -8.5q-39 -2 -63 4q-44 0 -66 -21q-33 -31 -30 -104q4 -76 13 -223
q6 -107 6 -260q0 -67 -11 -166q0 -14 12 -20q88 -18 133 -28q51 -20 52 -57z" />
    <glyph glyph-name="backslash" unicode="\" horiz-adv-x="642" 
d="M586 -36q-18 -12 -42 -12q-9 0 -14 1q-15 0 -178 235q-72 104 -112 169q-73 119 -136 246q-65 132 -61 166q3 24 23 39t45 15q11 0 19 -2q12 -1 42 -48q43 -66 102 -175q83 -155 97 -179q73 -127 138 -217l78 -105q24 -34 24 -69q0 -47 -25 -64z" />
    <glyph glyph-name="bracketright" unicode="]" horiz-adv-x="574" 
d="M494 3q0 -84 -148 -112q-69 -13 -208 -14q-90 0 -90 61q0 67 192 88q18 0 53 -3.5t53 -3.5q16 0 21.5 2.5t11 7.5t7.5 15v693q-36 56 -174 58q-27 0 -50.5 23.5t-23.5 50.5q0 62 65 62q49 0 158 -39q133 -48 133 -100v-789z" />
    <glyph glyph-name="asciicircum" unicode="^" horiz-adv-x="530" 
d="M508 571q0 -22 -15 -37t-38 -16q-24 -1 -76 32l-112 70q-23 0 -65 -67.5t-65 -68.5q-51 -1 -53 53q-1 23 59 108q66 94 118 95q20 0 132.5 -77.5t114.5 -91.5z" />
    <glyph glyph-name="underscore" unicode="_" horiz-adv-x="822" 
d="M881 -74q0 -59 -271 -73q-55 -3 -318 -3h-298q-25 0 -71 14q-61 19 -62 41q-1 39 153 50q50 4 163 5h70q43 0 63 -1l449 20q19 1 65 -14q57 -18 57 -39z" />
    <glyph glyph-name="grave" unicode="`" horiz-adv-x="369" 
d="M331 556q0 -25 -25.5 -54.5t-47.5 -29.5q-176 93 -176 221q0 63 48 63q20 0 61 -58q28 -40 39 -62q20 -26 67 -37q34 -8 34 -43z" />
    <glyph glyph-name="a" unicode="a" horiz-adv-x="531" 
d="M482 58q0 -23 -14.5 -38.5t-36.5 -15.5q-41 0 -77 24t-54 59q-20 3 -38 -22q-21 -29 -27 -32q-33 -14 -100 -14q-56 0 -100 63q-38 55 -38 103q0 89 88 166q84 74 170 74q21 0 40 -13q24 -16 24 -40q0 -14 -9 -29q61 -23 61 -73q0 -10 -3 -28.5t-3 -25.5q0 -9 2 -15
q13 -34 66 -87q49 -49 49 -56zM273 319q-10 0 -30 3.5t-28 3.5q-31 0 -81.5 -49.5t-50.5 -85.5q0 -21 18 -47q23 -33 56 -33q68 0 91 75q13 67 25 133z" />
    <glyph glyph-name="b" unicode="b" horiz-adv-x="620" 
d="M581 116q0 -36 -40 -84t-79 -48q-68 0 -145 18q-52 12 -112 33q-50 19 -53 19q-9 0 -14 -3.5t-14 -3.5q-17 0 -38 15q-24 17 -27 36q-2 14 3.5 56t3.5 63q-4 55 -17 108q-12 48 -12 47v319q0 23 16 72q17 53 36 72q40 -22 40 -78q0 -18 -4 -40.5t-4 -23.5v-176
q0 -123 25 -261q25 15 51 58q31 51 44 65q29 30 71 30q123 0 202 -104q67 -88 67 -189zM476 103q5 11 5 27q0 54 -48 116q-51 66 -100 66q-14 0 -68 -57.5t-53 -79.5v-29q152 -58 205 -58q44 0 59 15z" />
    <glyph glyph-name="c" unicode="c" horiz-adv-x="490" 
d="M448 119q-22 -24 -122 -60q-93 -33 -114 -33q-82 0 -129.5 51t-47.5 141q0 118 97 197q86 69 188 69q10 0 24 -18t14 -31q0 -52 -57 -70l-104 -30q-57 -30 -57 -114q0 -82 75 -82h22q13 1 21.5 1t15.5 3t16.5 3t56.5 15t56 15q11 0 45 -16v-41z" />
    <glyph glyph-name="d" unicode="d" horiz-adv-x="564" 
d="M519 208l-36 -6q-29 -4 -38 -20q-79 -127 -100 -148q-44 -43 -133 -43q-54 0 -120 93q-61 86 -61 136q0 105 61 171t161 66q8 0 40 -7.5t41 -7.5q24 0 32 96q13 147 20 178q21 96 78 96q19 0 31 -25q9 -20 9 -38q0 -33 -25.5 -109t-25.5 -142q0 -65 20 -155
q20 -94 46 -135zM386 276q0 29 -24 77q-111 -12 -156 -29q-72 -28 -72 -89q0 -29 36 -81q41 -60 83 -60q32 0 81 62q52 66 52 120z" />
    <glyph glyph-name="e" unicode="e" horiz-adv-x="406" 
d="M365 62q0 -14 -46 -28q-37 -11 -51 -11q-102 0 -172 48q-83 58 -83 167q0 72 54 155q65 97 152 97q52 0 85 -32t33 -82q0 -49 -43 -105q-47 -61 -102 -61q-9 0 -12.5 4.5t-8.5 4.5q-13 0 -65 -18q18 -55 75 -83q45 -22 101 -22q6 0 14 2.5t14 2.5q18 0 36.5 -13t18.5 -26
zM243 352v49q-2 0 -9 3t-15 3q-27 0 -66 -42q-33 -37 -41 -60q20 -17 38 -17q9 0 48 22q46 25 45 42z" />
    <glyph glyph-name="f" unicode="f" horiz-adv-x="614" 
d="M656 642q0 -19 -14.5 -34t-34.5 -15q-13 0 -35 20q-29 28 -48 39q-38 20 -88 20q-63 0 -117 -39q-68 -48 -83 -137q-3 -18 68 -21q101 -4 134 -12q74 -19 74 -74q0 -60 -70 -60q-8 0 -79 16.5t-77.5 16.5t-14.5 1.5t-11 1.5q-9 0 -9 -12q0 -8 3.5 -22.5t21.5 -143.5
t18 -141q0 -46 -46 -46q-43 0 -65 105q-9 45 -22 191q-9 99 -23 91q-28 7 -88 25q-19 2 -32.5 17.5t-13.5 28.5q0 20 28 33q21 10 35 10q5 0 24.5 -4.5t28.5 -4.5t13 4q15 47 31 94q29 81 84 125q79 62 221 62q70 0 128.5 -42t58.5 -93z" />
    <glyph glyph-name="g" unicode="g" horiz-adv-x="542" 
d="M481 288q0 -42 -26 -244q-29 -228 -48 -259q-25 -39 -51 -51q-17 -7 -52 -7q-48 0 -91 38t-43 85q0 22 12 37.5t34 15.5q8 0 38 -31.5t39 -31.5q46 0 61 98q8 55 6 116q-5 0 -43 -14t-48 -14q-9 0 -21 1t-21 1q-79 0 -135 85q-43 65 -50 129q-8 76 65 158.5t144 82.5
q14 0 46 -16q36 -18 49 -36l-12 -37q-11 -6 -36 -8q-29 -3 -48 -10q-7 3 -14 3q-35 0 -72 -50.5t-37 -93.5q0 -60 43 -93q35 -27 81 -27q49 0 82 63q24 46 36 118q10 53 8 65q-2 19 23 28q21 4 42 9q39 -16 39 -110z" />
    <glyph glyph-name="h" unicode="h" horiz-adv-x="545" 
d="M506 171q0 -87 -6 -126q-16 -99 -67 -99q-27 0 -36 44q-6 29 -6 103v21q0 105 -12 149q-20 71 -78 71q-30 0 -103 -125q-41 -72 -81 -145h-47q-36 36 -36 246q21 461 80 461q52 0 52 -80q0 -8 -6 -52q-8 -55 -10 -73q-4 -33 -4 -42q0 -112 6 -162q66 63 88.5 78t64.5 19
q92 9 153 -115q48 -95 48 -173z" />
    <glyph glyph-name="i" unicode="i" horiz-adv-x="225" 
d="M207 655q2 -27 -13 -35q-6 -3 -27 -4q-35 -3 -55 27q-13 21 -15 43q-2 28 -2 25q0 29 55 40q7 2 13 2q33 0 42 -44zM170 19q-4 -5 -24 -5.5t-27 -4.5q-60 28 -73 66q-2 8 -8 92q-4 62 -4 57q0 21 24 133q7 5 45 27q44 -38 46 -68l-13 -108q-6 -25 -6 -45
q0 -31 21.5 -59.5t21.5 -54.5q0 -13 -3 -30z" />
    <glyph glyph-name="j" unicode="j" horiz-adv-x="477" 
d="M330 629q0 -21 -16.5 -33t-28.5 -12q-15 0 -27.5 9t-12.5 22q0 12 15 35.5t33 23.5q9 0 23 -17.5t14 -27.5zM431 15q0 -94 -69 -143q-57 -41 -140 -41q-52 0 -123 33q-86 41 -86 97q0 34 34 34q9 0 69.5 -37t94.5 -37q94 0 121 66q14 35 14 138q0 14 -19.5 100.5
t-19.5 139.5q0 15 17 37.5t37 22.5q34 0 56 -204q14 -138 14 -206z" />
    <glyph glyph-name="k" unicode="k" horiz-adv-x="547" 
d="M508 91q15 -16 15 -33q0 -20 -19 -36t-32 -16q-7 0 -117 49q-132 58 -176 75q-5 4 -9 4q-13 0 -10 -55q3 -67 -1 -79q-12 -41 -59 -43q-33 149 -47 261q-8 63 -11 136q-2 51 -8 69q-1 3 -1 26q0 109 14 226q20 158 55 158q46 0 46 -86q0 -9 -14 -110.5t-14 -110.5
q0 -74 8 -101q2 -8 8 -8q1 0 46 21t97 24q49 3 119 -15q85 -21 85 -56q0 -18 -25 -41t-35 -23q-6 0 -50.5 17t-74.5 18q-73 5 -150 -53v-21q0 -7 -1 -24q-1 -11 1 -16.5t9 -11.5q21 -22 92 -49q53 -19 105 -38z" />
    <glyph glyph-name="l" unicode="l" horiz-adv-x="255" 
d="M195 91q0 -17 -23 -31q-19 -11 -30 -11q-50 1 -80 272q-21 195 -20 283q4 187 67 185q43 0 43 -108q0 -32 -5 -109t-5 -115q0 -37 4 -64q50 -288 49 -302z" />
    <glyph glyph-name="m" unicode="m" horiz-adv-x="806" 
d="M748 150q-1 -31 -20 -84q-22 -63 -47 -59q-31 4 -39 85l-16 146q-17 78 -70 78q-40 0 -81 -80q-32 -72 -65 -145q-36 -76 -67 -70q-29 6 -40 83l-18 144q-14 80 -49 90q-44 -44 -95 -151q-42 -85 -63 -85q-25 0 -41 32q-11 22 -11 35q0 68 76 185q80 125 144 125
q40 0 87 -66q29 -49 58 -97q43 43 87.5 85.5t96.5 39.5q58 -4 114 -92q59 -93 59 -199z" />
    <glyph glyph-name="n" unicode="n" horiz-adv-x="633" 
d="M577 71q0 -35 -19 -62.5t-51 -27.5q-25 0 -64 83q-69 150 -72 155q-47 84 -91 84t-71 -73q-20 -68 -41 -135q-28 -73 -74 -73q-56 0 -56 93q0 11 1 27.5t1 19.5q0 72 21 173q31 150 86 150q27 0 36 -32q5 -26 11 -51q17 18 56 31q31 11 46 11q49 0 121 -91
q56 -70 111 -174q49 -90 49 -108z" />
    <glyph glyph-name="o" unicode="o" horiz-adv-x="590" 
d="M527 271q0 -109 -96 -179q-83 -60 -177 -60q-88 0 -153.5 68t-65.5 154q0 85 76 164q80 85 180 85q94 0 167 -76q69 -72 69 -156zM439 267q0 60 -49 100q-45 35 -99 35q-5 0 -40.5 -40.5t-63.5 -40.5q-15 0 -21 7q-30 -59 -30 -77q0 -57 55 -88q43 -23 93 -23q52 0 97 28
q58 36 58 99z" />
    <glyph glyph-name="p" unicode="p" horiz-adv-x="557" 
d="M506 196q0 -74 -50 -114q-46 -38 -119 -38q-8 0 -69 10.5t-68 10.5q-52 0 -52 -68q0 -19 5 -65t5 -69q0 -49 -19 -73q-37 0 -78 22q-37 245 -37 308q0 95 45 209q61 156 165 156q97 0 187 -105q85 -98 85 -184zM409 191q-21 69 -78.5 123t-100.5 54q-33 0 -60 -57
q-22 -48 -22 -84q0 -14 10.5 -33t19.5 -19t81.5 -7t81.5 -7q6 0 31.5 10.5t36.5 19.5z" />
    <glyph glyph-name="q" unicode="q" horiz-adv-x="613" 
d="M587 -125q0 -21 -35 -40q-28 -16 -42 -16q-32 0 -63 104q-37 127 -50 145q-64 -34 -79 -40q-37 -16 -69 -16q-97 0 -153 42q-64 48 -64 143q0 99 127 190q116 83 207 83q73 0 73 -53q0 -13 -5 -30q10 4 23 4q22 0 40 -10t22 -27q9 -36 8 -103q-1 -88 0 -106
q8 -104 24 -168q9 -41 24 -71q12 -23 12 -31zM401 325q10 42 -9 42q-8 0 -26.5 -9t-23.5 -9q-24 0 -111 -53q-94 -58 -94 -91t36 -54q32 -19 76 -19q48 0 103 52t55 107q0 18 -6 34z" />
    <glyph glyph-name="r" unicode="r" horiz-adv-x="490" 
d="M464 366q-11 -11 -39 -11q-20 0 -66 8t-63 8q-72 0 -107 -60q-25 -41 -33 -118q-10 -83 -11 -85q-10 -25 -44 -60h-30q-16 29 -33 102t-17 113q0 29 3 38q6 14 26 14q9 0 17.5 -8t10.5 -8q56 103 95 132.5t114 29.5q35 0 92 -23q73 -30 85 -72z" />
    <glyph glyph-name="s" unicode="s" horiz-adv-x="342" 
d="M286 159q2 -8 2 -16q0 -56 -77 -109q-70 -49 -125 -49q-10 0 -17 2l-32 4q-21 2 -28 19q-4 10 11 26t30 21h-2.5t1.5 0q4 -1 16 -2q53 -4 126 69q3 2 3 7q0 13 -72.5 100t-74.5 133q-1 43 34 82q38 43 93 44q34 1 53 -26q17 -23 13 -45q-4 -19 -27 -19q-7 0 -23.5 2
t-24.5 2q-26 0 -34 -18q2 -40 75 -123q76 -87 80 -104z" />
    <glyph glyph-name="t" unicode="t" horiz-adv-x="586" 
d="M557 474q8 -20 8 -37q0 -48 -62 -48q-10 0 -89 13.5t-89 13.5q-35 0 -42 -5t-7 -29q0 -55 15 -178q19 -151 41 -158q-9 -9 -9 -28q-32 -18 -68 -18t-50 101q-5 41 -13 200q-6 119 -20 141q-4 7 -41 8q-27 2 -71 1q-57 -2 -49 -2q-20 0 -31 18q-5 12 -11 24q-3 6 -3 12
q0 35 107 52q61 6 122 13q0 29 -2 70q-1 45 -1 63q0 56 10 81q12 31 44 31q14 0 29.5 -15t15.5 -29v-203q33 -35 129.5 -44t136.5 -48z" />
    <glyph glyph-name="u" unicode="u" horiz-adv-x="538" 
d="M465 275q0 -85 -67 -156q-73 -77 -181 -85q-95 -7 -149 65q-45 61 -45 148q0 65 21 121q24 64 61 64q6 0 12 -2q10 -7 21 -14q11 -10 9 -34q-1 -8 -18 -58t-17 -60q0 -32 27.5 -71t57.5 -40q80 -4 111 30q10 13 38 83q2 88 5 110q3 40 13.5 42.5t19.5 2.5q56 0 74 -61
q7 -27 7 -85z" />
    <glyph glyph-name="v" unicode="v" horiz-adv-x="469" 
d="M402 348q-3 -65 -61 -183q-69 -142 -140 -141q-54 0 -117 147q-54 127 -54 177q0 24 13 47q18 31 50 31q2 0 5.5 1.5t5.5 1.5q10 0 31 -35q-2 -40 3 -60q10 -34 11 -42q4 -24 24 -63t32 -49q21 18 62 94t41 93q7 55 27 55q3 0 9.5 -2t9.5 -1q31 3 40.5 -11t7.5 -60z" />
    <glyph glyph-name="w" unicode="w" horiz-adv-x="731" 
d="M311 186q-16 -32 -55 -100q-44 -70 -74 -70q-56 0 -103 150q-36 115 -36 157q0 31 12 54q15 29 43 29q24 0 35 -35.5t16 -124.5q13 -50 36 -84q21 28 59 123q42 104 67 104q14 0 36 -10.5t23 -22.5q3 -63 34.5 -129.5t78.5 -111.5q46 43 63 116l22 132q-10 31 -10 53
q0 55 59 55q26 0 40 -39q11 -27 11 -52q0 -19 -22 -105q-27 -110 -62 -180q-47 -95 -99 -95q-40 0 -98 75q-3 4 -76 111z" />
    <glyph glyph-name="x" unicode="x" horiz-adv-x="476" 
d="M419 407q-9 -40 -76 -91q-62 -48 -60 -77q1 -12 31 -32q44 -30 54 -39q29 -27 29 -57q0 -20 -25 -30q-21 -8 -43 -5q-42 5 -84 37.5t-40 32.5q-16 0 -60.5 -65.5t-67.5 -65.5q-14 0 -28.5 10t-14.5 22q0 18 46.5 98t46.5 87q0 22 -57 90.5t-57 112.5q0 15 15 27.5
t27 12.5q29 -1 79 -60q48 -55 54 -83q29 15 87 70q47 45 87 51q36 6 50 -18q9 -16 7 -28z" />
    <glyph glyph-name="y" unicode="y" horiz-adv-x="521" 
d="M449 396q-36 -72 -83 -181l-40 -116q-23 -68 -29.5 -119.5t-21.5 -96.5q-26 -73 -61 -68q-36 5 -40 42q-1 5 -1 13q0 4 7 38q27 130 27 166q0 14 -3 19q-53 95 -106 191q-68 130 -61 198q37 35 54 35q11 0 27.5 -16.5t17.5 -27.5q23 -161 127 -286q22 40 48 104
q20 54 41 107q49 115 87 115q5 0 11 -2q22 -8 32 -72z" />
    <glyph glyph-name="z" unicode="z" horiz-adv-x="477" 
d="M419 72q-27 -33 -56 -40q-40 -6 -79.5 -12t-91.5 -5q-31 2 -63 4q-72 1 -72 56q0 8 2 18q10 54 84 139q80 93 83 101q-8 13 -33 16h-40q-7 1 -55 -4t-55 -5q-11 -1 -22 -1q-18 3 -35 21l12 28q10 21 31.5 36t196.5 12q35 -1 79 -12q63 -16 63 -42q0 -8 -6 -16
q-15 -24 -94 -108q-75 -79 -107 -133q18 -14 71 -17q37 -1 75 -2q6 0 24.5 3t26.5 2h43q28 -4 28 -18q0 -8 -10 -21z" />
    <glyph glyph-name="braceleft" unicode="{" horiz-adv-x="467" 
d="M500 -68q0 -20 -16.5 -31.5t-38.5 -11.5q-37 0 -160 68q-138 77 -147 132q-5 29 -5 60q0 25 3.5 59.5t3.5 44.5q0 11 -2 18q-5 14 -32 28q-36 19 -45 26q-23 20 -23 50q0 35 49.5 78.5t49.5 82.5q0 11 -13.5 58.5t-13.5 65.5q0 59 52 129q58 78 123 78q22 0 36 -14
q11 -11 11 -26q0 -24 -64 -79.5t-64 -86.5q0 -16 27 -71t27 -78q0 -33 -30.5 -66t-30.5 -37q0 -15 37.5 -43t37.5 -59q0 -18 -26.5 -74.5t-26.5 -67.5q0 -48 73 -93q67 -34 135 -69q73 -38 73 -71z" />
    <glyph glyph-name="bar" unicode="|" horiz-adv-x="253" 
d="M219 -138q0 -16 -16 -34.5t-31 -18.5q-23 0 -39.5 27.5t-16.5 71.5q0 18 3 36q-17 198 -45 651q-4 80 0 125q19 84 52 84q15 0 33 -50q23 -64 23 -165q0 -33 -3 -69l40 -549v-109z" />
    <glyph glyph-name="braceright" unicode="}" horiz-adv-x="473" 
d="M481 616q0 -65 -30 -104q-19 -25 -57 -44q-30 -16 -30 -23q0 -11 31 -37t31 -56q0 -36 -39.5 -59.5t-39.5 -45.5q0 -9 19 -31q24 -28 34 -49q19 -37 19 -85q0 -120 -87 -166q-62 -33 -185 -33q-38 0 -85 14q-59 18 -59 45q0 33 77 37q125 7 143 12q77 19 77 87
q0 12 -48 89t-48 102q0 24 20.5 50.5t20.5 39.5q0 20 -29.5 53t-29.5 57q0 38 46 56l84 30q46 23 46 73q0 44 -60 97q-55 43 -111 87q-60 48 -60 81q0 16 18.5 37.5t36.5 21.5q13 0 81 -44q85 -56 140 -120q74 -86 74 -172z" />
    <glyph glyph-name="asciitilde" unicode="~" horiz-adv-x="898" 
d="M874 338q0 -13 -28 -47q-37 -46 -92 -74q-74 -39 -167 -39q-104 0 -166 41q-42 39 -83 78q-46 41 -111 41q-42 0 -65 -33q-2 -4 -28 -62q-14 -33 -37 -33q-28 0 -48.5 21t-20.5 57q0 50 32 103q50 85 154 85q89 0 154 -41l94 -78q54 -41 117 -41q62 0 139.5 44t90.5 44
q19 0 42 -21t23 -45z" />
    <glyph glyph-name="cent" unicode="&#xa2;" horiz-adv-x="523" 
d="M492 255q0 -58 -63 -102l-68 -34q-14 -9 -14 -53v-34q0 -63 -43 -64q-23 -1 -34 44q-28 111 -87 139q-119 56 -121 197q-1 130 146 188q34 13 46 65q5 44 10 88.5t26 44.5q32 0 47 -9q11 -7 13 -24q0 -12 -4 -26q-12 -41 -12 -52q0 -15 5.5 -25.5t50.5 -35.5
q36 -20 36 -56q0 -22 -31 -32q-69 -23 -69 -116q0 -26 8 -70q10 -56 23 -56q26 0 48 33t47 33q27 0 33.5 -7t6.5 -24v-12zM241 337q-1 7 -5 19q0 10 -1 15q0 7 0.5 12t2.5 8q0 11 -23 32q-16 -16 -38 -54q-6 -10 -15 -31q0 -38 18 -57q14 -15 55 -30l4 44q1 15 2 42z" />
    <glyph glyph-name="currency" unicode="&#xa4;" horiz-adv-x="815" 
d="M792 748q0 -30 -43.5 -95.5t-43.5 -72.5q0 4 22.5 -67.5t22.5 -155.5q0 -74 -57 -154q70 -50 70 -111q0 -33 -25 -45q-18 -9 -59 -9q-36 0 -65.5 29.5t-42.5 29.5l-40 -23q-46 -27 -97 -42q-74 -23 -155 -23q-58 0 -105 40q-40 -49 -76 -49q-22 0 -41 16q-26 21 -26 59
q0 35 34.5 71.5t36.5 44.5q2 6 -5 38q-8 41 -8 99q0 76 17 146.5t17 66.5q0 17 -51.5 85t-51.5 102q0 29 17 47.5t44 18.5q43 0 72 -22q13 -9 36 -39q17 -22 31 -22q5 0 31 24q32 28 65 43q50 24 112 24q85 0 178 -82q27 30 54 59q20 19 65 19q67 0 67 -50zM588 433
q0 98 -51 159q-47 57 -117 57q-62 0 -94 -65q-23 -46 -34 -137q-8 -61 -15 -123q0 -2 -17 -33t-17 -32q0 -32 37 -63q41 -33 91 -33q83 0 150 82.5t67 187.5z" />
    <glyph glyph-name="dieresis" unicode="&#xa8;" horiz-adv-x="438" 
d="M237 962q22 -1 30 -10t8 -24q0 -24 -18 -35q-12 -9 -24 -9q-17 0 -27 10q-11 17 -10 28q0 23 8.5 32t32.5 8zM432 970q23 0 30 -9.5t7 -28.5q0 -14 -14 -25q-9 -7 -27 -11q-39 0 -39 43q0 18 13 28q1 1 23 5q6 0 7 -2z" />
    <glyph glyph-name="copyright" unicode="&#xa9;" horiz-adv-x="873" 
d="M369 800q182 0 326.5 -104.5t144.5 -224.5q0 -354 -235 -436q-96 -34 -236 -35q-52 0 -139 50q-75 44 -119 89q-70 73 -71 190q-1 164 81 305q95 166 248 166zM181 376q-2 -234 212 -235q172 -1 253 91q75 87 76 262q0 46 -117 107q-110 58 -165 58q-108 0 -183 -86
t-76 -197zM440 584q25 0 68 -22q47 -24 49 -46l-3 -8l-45 10l-36 4l-21 -1q-6 0 -11 -4q-75 0 -95 -23t-21 -100q-1 -55 63 -87q37 -20 118 -37q65 -15 66 -24l-13 -24l-43 -6q-144 0 -192.5 57.5t-49.5 132.5q-1 71 47 124.5t119 53.5z" />
    <glyph glyph-name="registered" unicode="&#xae;" horiz-adv-x="1009" 
d="M978 379q0 -8 -18 -52q-45 -108 -108 -167q-80 -74 -140 -109q-83 -49 -170 -49q-183 -1 -319 93q-148 102 -148 268v115q11 29 38 88q52 98 154 164q134 87 328 88q111 1 238 -89q145 -103 145 -235v-115zM862 443q1 102 -73 182q-97 105 -176 105q-34 0 -73 -28
q0 1 -1 1.5t-2 0.5q-9 4 -29 5q-23 1 -47 -5q-22 -2 -69 -18q-53 -12 -138 -130q-63 -88 -64 -174q-1 -110 123 -202q107 -79 196 -80q66 -1 155 52q80 48 127 106q70 87 71 185zM714 235q0 -10 -1 -18t-3 -13h-27q-70 53 -165 138q-22 0 -32 -49.5t-34 -50.5q-12 0 -40 81
q-6 25 -25 85q0 55 6 78q4 20 15 60q0 32 -17 41q-33 17 -43 33q25 21 60 28q26 6 66 6q112 1 164 -33q49 -32 50 -105q0 -36 -25 -61q-10 -11 -47 -35q-27 -16 -28 -30q0 -22 63 -63t63 -92zM616 538q0 14 -33.5 42t-48.5 30q-32 0 -50 -29q-16 -25 -16 -59q0 -30 23 -50
q17 -14 33 -16q14 0 52 34t40 48z" />
    <glyph glyph-name="acute" unicode="&#xb4;" horiz-adv-x="438" 
d="M469 1113q1 -70 -68 -161t-128 -91q-19 0 -31 15q-8 14 -10 24q0 8 28 43q19 23 71 93q1 2 50 92q17 31 40 32q47 1 48 -47z" />
    <glyph glyph-name="paragraph" unicode="&#xb6;" horiz-adv-x="738" 
d="M698 465q0 -91 -10 -180l-20 -150q-4 -47 -8 -93q-10 -83 -30 -131q-29 -67 -76 -67q-20 0 -28 31q-5 18 -8 65l40 276q-56 -7 -57 6q-1 10 -2 11q-3 0 -20 -105q-20 -127 -40 -195q-30 -105 -64 -105q-61 0 -61 97q17 84 67 297q-37 -4 -110 14q-100 24 -162 75
q-83 69 -83 175q0 104 111 208q118 112 261 112q179 0 253 -106q49 -70 49 -180q0 -16 -1 -35t-1 -20zM586 442q0 75 -6 98q-13 56 -66 81l-10 -282l30 6q32 12 43 38q9 20 9 59zM396 345v297h-67q-43 -21 -86 -41q-83 -49 -83 -98q0 -68 95 -116q20 -10 115 -42h26z" />
    <glyph glyph-name="cedilla" unicode="&#xb8;" horiz-adv-x="491" 
d="M380 3q91 -26 97 -29q49 -23 49 -76q0 -61 -54 -95q-48 -31 -120 -31q-57 0 -57 34q0 40 15 50q7 3 47 6.5t74 21.5q-10 17 -58 21q-66 6 -78 10q-37 12 -31 49l7 60q5 10 25 76q13 44 72 44q25 0 43.5 -11.5t18.5 -28.5q0 -18 -28 -58q-32 -46 -38 -66z" />
    <glyph glyph-name="questiondown" unicode="&#xbf;" horiz-adv-x="653" 
d="M76 117q-1 70 61 129q38 33 113 101q61 55 62 104q0 5 -19 47q-9 21 -10 45q-1 40 12.5 53t54.5 14q22 0 59 -39q45 -47 45 -107q0 -80 -74 -159q-54 -56 -162 -171q0 -37 60 -47q22 -4 87 -5q116 -1 171 36q27 18 57 18q24 0 47.5 -20.5t24.5 -44.5q-14 -22 -22 -35
q-85 -103 -288 -103q-107 0 -182 39q-96 49 -97 145zM288 771q-1 36 34 70t58 35q14 1 48 -29q39 -34 39 -64q-13 -16 -36 -42q-40 -42 -65 -42q-28 0 -52.5 22t-25.5 50z" />
    <glyph glyph-name="Agrave" unicode="&#xc0;" horiz-adv-x="671" 
d="M371 800q74 1 135 -137q68 -153 87 -242l77 -357l-7 -26q-5 -17 -14 -25t-19 -11l-17 -2q-17 0 -24 2l-20 6v46l1 44q2 69 -18 101t-82 32q-174 1 -217.5 -18.5t-67 -83.5t-85.5 -116l-20 -6l-22 -2q-16 0 -23 10q-3 9 -3 24q0 61 21 116q44 117 90 294q19 72 37 144
q29 93 67 142q51 64 124 65zM248 379l41 6l25 2l66 -5q17 -1 47 9q26 9 68 38q-9 64 -47 156q-37 89 -56 90l-13 1h-7q-64 0 -78 -121t-46 -176zM481 956q0 -24 -29 -50t-52 -26q-168 85 -168 213q0 63 48 63q20 0 59 -56q24 -36 36 -60q20 -26 70 -39q36 -10 36 -45z" />
    <glyph glyph-name="Aacute" unicode="&#xc1;" horiz-adv-x="669" 
d="M371 800q74 1 135 -137q68 -153 87 -242l77 -357l-7 -26q-5 -17 -14 -25t-19 -11l-17 -2q-17 0 -24 2l-20 6v46l1 44q2 69 -18 101t-82 32q-174 1 -217.5 -18.5t-67 -83.5t-85.5 -116l-20 -6l-22 -2q-16 0 -23 10q-3 9 -3 24q0 61 21 116q44 117 90 294q19 72 37 144
q29 93 67 142q51 64 124 65zM248 379l41 6l25 2l66 -5q17 -1 47 9q26 9 68 38q-9 64 -47 156q-37 89 -56 90l-13 1h-7q-64 0 -78 -121t-46 -176zM439 1113q1 -70 -68 -161t-128 -91q-19 0 -31 15q-8 14 -10 24q0 8 28 43q19 23 71 93q1 2 50 92q17 31 40 32q47 1 48 -47z
" />
    <glyph glyph-name="Acircumflex" unicode="&#xc2;" horiz-adv-x="676" 
d="M371 800q74 1 135 -137q68 -153 87 -242l77 -357l-7 -26q-5 -17 -14 -25t-19 -11l-17 -2q-17 0 -24 2l-20 6v46l1 44q2 69 -18 101t-82 32q-174 1 -217.5 -18.5t-67 -83.5t-85.5 -116l-20 -6l-22 -2q-16 0 -23 10q-3 9 -3 24q0 61 21 116q44 117 90 294q19 72 37 144
q29 93 67 142q51 64 124 65zM248 379l41 6l25 2l66 -5q17 -1 47 9q26 9 68 38q-9 64 -47 156q-37 89 -56 90l-13 1h-7q-64 0 -78 -121t-46 -176zM583 944q0 -22 -15 -37t-38 -16q-24 -1 -76 32l-112 70q-23 0 -65 -67.5t-65 -68.5q-51 -1 -53 53q-1 23 59 108q66 94 118 95
q20 0 132.5 -77.5t114.5 -91.5z" />
    <glyph glyph-name="Atilde" unicode="&#xc3;" horiz-adv-x="677" 
d="M606 968q0 -18 -36 -51q-49 -45 -123 -45q-52 0 -83 21q-21 19 -43 39t-54 20q-28 0 -40.5 -32t-24.5 -32q-20 0 -34.5 14.5t-14.5 40.5q0 29 18 60q29 48 89 48q57 0 102.5 -40t80.5 -40q31 0 70 22t45 22q14 0 31 -14.5t17 -32.5zM670 64l-7 -26q-5 -17 -14 -25
t-19 -11l-17 -2q-17 0 -24 2l-20 6v46l1 44q2 69 -18 101t-82 32q-174 1 -217.5 -18.5t-67 -83.5t-85.5 -116l-20 -6l-22 -2q-16 0 -23 10q-3 9 -3 24q0 61 21 116q44 117 90 294q19 72 37 144q29 93 67 142q51 64 124 65q74 1 135 -137q68 -153 87 -242zM495 429
q-9 64 -47 156q-37 89 -56 90l-13 1h-7q-64 0 -78 -121t-46 -176l41 6l25 2l66 -5q17 -1 47 9q26 9 68 38z" />
    <glyph glyph-name="Adieresis" unicode="&#xc4;" horiz-adv-x="684" 
d="M371 800q74 1 135 -137q68 -153 87 -242l77 -357l-7 -26q-5 -17 -14 -25t-19 -11l-17 -2q-17 0 -24 2l-20 6v46l1 44q2 69 -18 101t-82 32q-174 1 -217.5 -18.5t-67 -83.5t-85.5 -116l-20 -6l-22 -2q-16 0 -23 10q-3 9 -3 24q0 61 21 116q44 117 90 294q19 72 37 144
q29 93 67 142q51 64 124 65zM248 379l41 6l25 2l66 -5q17 -1 47 9q26 9 68 38q-9 64 -47 156q-37 89 -56 90l-13 1h-7q-64 0 -78 -121t-46 -176zM237 962q22 -1 30 -10t8 -24q0 -24 -18 -35q-12 -9 -24 -9q-17 0 -27 10q-11 17 -10 28q0 23 8.5 32t32.5 8zM432 970
q23 0 30 -9.5t7 -28.5q0 -14 -14 -25q-9 -7 -27 -11q-39 0 -39 43q0 18 13 28q1 1 23 5q6 0 7 -2z" />
    <glyph glyph-name="Aring" unicode="&#xc5;" horiz-adv-x="675" 
d="M466 973q0 -48 -50 -87q-44 -34 -81 -34q-29 0 -45 28q-14 25 -14 60q0 69 23 95t76 26q91 0 91 -88zM670 64l-7 -26q-5 -17 -14 -25t-19 -11l-17 -2q-17 0 -24 2l-20 6v46l1 44q2 69 -18 101t-82 32q-174 1 -217.5 -18.5t-67 -83.5t-85.5 -116l-20 -6l-22 -2
q-16 0 -23 10q-3 9 -3 24q0 61 21 116q44 117 90 294q19 72 37 144q29 93 67 142q51 64 124 65q74 1 135 -137q68 -153 87 -242zM393 974q0 6 -8.5 12.5t-14.5 6.5q-10 0 -19.5 -16t-9.5 -25q0 -5 20 -14q32 32 32 36zM495 429q-9 64 -47 156q-37 89 -56 90l-13 1h-7
q-64 0 -78 -121t-46 -176l41 6l25 2l66 -5q17 -1 47 9q26 9 68 38z" />
    <glyph glyph-name="Ccedilla" unicode="&#xc7;" horiz-adv-x="651" 
d="M678 72q0 -53 -65 -65q-37 -6 -132 0q-82 6 -101 -4q91 -26 97 -29q49 -23 49 -76q0 -61 -54 -95q-48 -31 -120 -31q-57 0 -57 34q0 40 15 50q7 3 47 6.5t74 21.5q-10 17 -49 21q-53 6 -63 10q-32 11 -35 48q-1 14 -1 26q0 19 2.5 33.5l2.5 14.5q0 4 -17 12
q-34 16 -78 44q-164 106 -164 331q0 153 105.5 269.5t250.5 116.5q63 0 142 -39q83 -41 118 -96v-28q-42 13 -106 24q-57 9 -77 9q-145 0 -213.5 -24.5t-92.5 -83.5q-19 -48 -19 -154q0 -126 61 -181q40 -35 159 -70q111 -32 207 -53q92 -20 93 -20q21 -6 21 -22z" />
    <glyph glyph-name="Egrave" unicode="&#xc8;" horiz-adv-x="753" 
d="M507 810q116 1 118 -60l-25 -54q-88 -34 -191 -46q-54 -6 -74 -45q-15 -30 -13 -88q5 -159 5 -100q210 58 268 59q51 1 51 -37q0 -18 -16 -59l-184 -50q-136 -39 -137 -82q-1 -58 20 -95q25 -45 79 -45q47 0 137.5 15.5t135.5 16.5q94 2 97 -56l4 -7q3 -3 3 -12
q0 -8 -8 -16q-11 -11 -47 -18l-144 -27q-2 0 -83 -10q-17 -2 -46 -4h-29q2 0 -114 4q-51 2 -67 13q-7 5 -13 12t-11 13l-16 26l-1 155q0 75 -19 76l-25 -8q-15 -5 -37 -7q-45 0 -88 32v74q20 5 20.5 21t131.5 17q0 19 -6 114l-6 95q-6 92 64 140q44 31 158 39q44 3 108 4z
M501 956q0 -24 -29 -50t-52 -26q-168 85 -168 213q0 63 48 63q20 0 59 -56q24 -36 36 -60q20 -26 70 -39q36 -10 36 -45z" />
    <glyph glyph-name="Eacute" unicode="&#xc9;" horiz-adv-x="754" 
d="M507 810q116 1 118 -60l-25 -54q-88 -34 -191 -46q-54 -6 -74 -45q-15 -30 -13 -88q5 -159 5 -100q210 58 268 59q51 1 51 -37q0 -18 -16 -59l-184 -50q-136 -39 -137 -82q-1 -58 20 -95q25 -45 79 -45q47 0 137.5 15.5t135.5 16.5q94 2 97 -56l4 -7q3 -3 3 -12
q0 -8 -8 -16q-11 -11 -47 -18l-144 -27q-2 0 -83 -10q-17 -2 -46 -4h-29q2 0 -114 4q-51 2 -67 13q-7 5 -13 12t-11 13l-16 26l-1 155q0 75 -19 76l-25 -8q-15 -5 -37 -7q-45 0 -88 32v74q20 5 20.5 21t131.5 17q0 19 -6 114l-6 95q-6 92 64 140q44 31 158 39q44 3 108 4z
M469 1113q1 -70 -68 -161t-128 -91q-19 0 -31 15q-8 14 -10 24q0 8 28 43q19 23 71 93q1 2 50 92q17 31 40 32q47 1 48 -47z" />
    <glyph glyph-name="Ecircumflex" unicode="&#xca;" horiz-adv-x="758" 
d="M507 810q116 1 118 -60l-25 -54q-88 -34 -191 -46q-54 -6 -74 -45q-15 -30 -13 -88q5 -159 5 -100q210 58 268 59q51 1 51 -37q0 -18 -16 -59l-184 -50q-136 -39 -137 -82q-1 -58 20 -95q25 -45 79 -45q47 0 137.5 15.5t135.5 16.5q94 2 97 -56l4 -7q3 -3 3 -12
q0 -8 -8 -16q-11 -11 -47 -18l-144 -27q-2 0 -83 -10q-17 -2 -46 -4h-29q2 0 -114 4q-51 2 -67 13q-7 5 -13 12t-11 13l-16 26l-1 155q0 75 -19 76l-25 -8q-15 -5 -37 -7q-45 0 -88 32v74q20 5 20.5 21t131.5 17q0 19 -6 114l-6 95q-6 92 64 140q44 31 158 39q44 3 108 4z
M613 944q0 -22 -15 -37t-38 -16q-24 -1 -76 32l-112 70q-23 0 -65 -67.5t-65 -68.5q-51 -1 -53 53q-1 23 59 108q66 94 118 95q20 0 132.5 -77.5t114.5 -91.5z" />
    <glyph glyph-name="Edieresis" unicode="&#xcb;" horiz-adv-x="755" 
d="M507 810q116 1 118 -60l-25 -54q-88 -34 -191 -46q-54 -6 -74 -45q-15 -30 -13 -88q5 -159 5 -100q210 58 268 59q51 1 51 -37q0 -18 -16 -59l-184 -50q-136 -39 -137 -82q-1 -58 20 -95q25 -45 79 -45q47 0 137.5 15.5t135.5 16.5q94 2 97 -56l4 -7q3 -3 3 -12
q0 -8 -8 -16q-11 -11 -47 -18l-144 -27q-2 0 -83 -10q-17 -2 -46 -4h-29q2 0 -114 4q-51 2 -67 13q-7 5 -13 12t-11 13l-16 26l-1 155q0 75 -19 76l-25 -8q-15 -5 -37 -7q-45 0 -88 32v74q20 5 20.5 21t131.5 17q0 19 -6 114l-6 95q-6 92 64 140q44 31 158 39q44 3 108 4z
M267 962q22 -1 30 -10t8 -24q0 -24 -18 -35q-12 -9 -24 -9q-17 0 -27 10q-11 17 -10 28q0 23 8.5 32t32.5 8zM462 970q23 0 30 -9.5t7 -28.5q0 -14 -14 -25q-9 -7 -27 -11q-39 0 -39 43q0 18 13 28q1 1 23 5q6 0 7 -2z" />
    <glyph glyph-name="Igrave" unicode="&#xcc;" horiz-adv-x="427" 
d="M297 800h105q12 -19 12 -31q0 -11 -69 -39q-72 -29 -68 -101l2 -32l5 -128q0 -26 2 -76q5 -71 6 -105q0 -38 10 -91q3 -16 13 -60q34 0 73 -17q31 -13 32 -37q1 -12 -24 -50q-8 -13 -12 -19q-8 -11 -20 -14l-40 17q-19 5 -40 7l-101 -6q-73 -4 -105 52q0 42 35 50
q32 7 81 7h30q0 43 -3.5 130t-3.5 130q0 27 -16 161l-8 67q0 35 19 77l-69 -1h-85q-38 0 -38 13q2 6 2.5 9.5t7.5 11.5l17 29q47 34 137 36q43 1 57 2q37 2 56 8zM361 956q0 -24 -29 -50t-52 -26q-168 85 -168 213q0 63 48 63q20 0 59 -56q24 -36 36 -60q20 -26 70 -39
q36 -10 36 -45z" />
    <glyph glyph-name="Iacute" unicode="&#xcd;" horiz-adv-x="425" 
d="M297 800h105q12 -19 12 -31q0 -11 -69 -39q-72 -29 -68 -101l2 -32l5 -128q0 -26 2 -76q5 -71 6 -105q0 -38 10 -91q3 -16 13 -60q34 0 73 -17q31 -13 32 -37q1 -12 -24 -50q-8 -13 -12 -19q-8 -11 -20 -14l-40 17q-19 5 -40 7l-101 -6q-73 -4 -105 52q0 42 35 50
q32 7 81 7h30q0 43 -3.5 130t-3.5 130q0 27 -16 161l-8 67q0 35 19 77l-69 -1h-85q-38 0 -38 13q2 6 2.5 9.5t7.5 11.5l17 29q47 34 137 36q43 1 57 2q37 2 56 8zM319 1113q1 -70 -68 -161t-128 -91q-19 0 -31 15q-8 14 -10 24q0 8 28 43q19 23 71 93q1 2 50 92q17 31 40 32
q47 1 48 -47z" />
    <glyph glyph-name="Icircumflex" unicode="&#xce;" horiz-adv-x="435" 
d="M297 800h105q12 -19 12 -31q0 -11 -69 -39q-72 -29 -68 -101l2 -32l5 -128q0 -26 2 -76q5 -71 6 -105q0 -38 10 -91q3 -16 13 -60q34 0 73 -17q31 -13 32 -37q1 -12 -24 -50q-8 -13 -12 -19q-8 -11 -20 -14l-40 17q-19 5 -40 7l-101 -6q-73 -4 -105 52q0 42 35 50
q32 7 81 7h30q0 43 -3.5 130t-3.5 130q0 27 -16 161l-8 67q0 35 19 77l-69 -1h-85q-38 0 -38 13q2 6 2.5 9.5t7.5 11.5l17 29q47 34 137 36q43 1 57 2q37 2 56 8zM463 944q0 -22 -15 -37t-38 -16q-24 -1 -76 32l-112 70q-23 0 -65 -67.5t-65 -68.5q-51 -1 -53 53
q-1 23 59 108q66 94 118 95q20 0 132.5 -77.5t114.5 -91.5z" />
    <glyph glyph-name="Idieresis" unicode="&#xcf;" horiz-adv-x="434" 
d="M297 800h105q12 -19 12 -31q0 -11 -69 -39q-72 -29 -68 -101l2 -32l5 -128q0 -26 2 -76q5 -71 6 -105q0 -38 10 -91q3 -16 13 -60q34 0 73 -17q31 -13 32 -37q1 -12 -24 -50q-8 -13 -12 -19q-8 -11 -20 -14l-40 17q-19 5 -40 7l-101 -6q-73 -4 -105 52q0 42 35 50
q32 7 81 7h30q0 43 -3.5 130t-3.5 130q0 27 -16 161l-8 67q0 35 19 77l-69 -1h-85q-38 0 -38 13q2 6 2.5 9.5t7.5 11.5l17 29q47 34 137 36q43 1 57 2q37 2 56 8zM117 962q22 -1 30 -10t8 -24q0 -24 -18 -35q-12 -9 -24 -9q-17 0 -27 10q-11 17 -10 28q0 23 8.5 32t32.5 8z
M312 970q23 0 30 -9.5t7 -28.5q0 -14 -14 -25q-9 -7 -27 -11q-39 0 -39 43q0 18 13 28q1 1 23 5q6 0 7 -2z" />
    <glyph glyph-name="Ntilde" unicode="&#xd1;" horiz-adv-x="827" 
d="M606 968q0 -18 -36 -51q-49 -45 -123 -45q-52 0 -83 21q-21 19 -43 39t-54 20q-28 0 -40.5 -32t-24.5 -32q-20 0 -34.5 14.5t-14.5 40.5q0 29 18 60q29 48 89 48q57 0 102.5 -40t80.5 -40q31 0 70 22t45 22q14 0 31 -14.5t17 -32.5zM804 724l-14 -227q-13 -83 -15 -106
q-6 -56 -6 -97q0 -106 -30 -205q-18 -60 -69 -61q-35 -1 -93 36l-339 434q-4 4 -12 7q-19 0 -28 -83q-5 -50 -5 -100q0 -179 34 -258l-7 -21q-4 -13 -10 -22q-10 -21 -42 -21q-25 0 -51 23l-24 27l-45 214q-10 48 -10 95q0 122 50.5 214t121.5 93q47 1 155 -126
q19 -23 130 -167q104 -136 122 -137q5 0 8 14q0 91 -2 172l-4 161q-3 103 20 162l34 36q17 18 42 19q28 1 51 -25q12 -17 38 -51z" />
    <glyph glyph-name="Ograve" unicode="&#xd2;" horiz-adv-x="719" 
d="M380 800q118 1 218.5 -136.5t101.5 -316.5q1 -148 -172 -254q-151 -92 -308 -93q-100 -1 -150 117q-37 87 -37 203q0 179 82 317q97 162 265 163zM220 320q-2 -6 -3 -8t-14 -23.5t-13 -39.5q0 -29 30 -62l42 -22q18 -9 57 -11l48 4q62 5 120 108q52 92 53 161
q1 78 -42 144q-49 75 -124 75l-20 -2q-65 0 -100 -99q-32 -93 -34 -225zM481 956q0 -24 -29 -50t-52 -26q-168 85 -168 213q0 63 48 63q20 0 59 -56q24 -36 36 -60q20 -26 70 -39q36 -10 36 -45z" />
    <glyph glyph-name="Oacute" unicode="&#xd3;" horiz-adv-x="719" 
d="M380 800q118 1 218.5 -136.5t101.5 -316.5q1 -148 -172 -254q-151 -92 -308 -93q-100 -1 -150 117q-37 87 -37 203q0 179 82 317q97 162 265 163zM220 320q-2 -6 -3 -8t-14 -23.5t-13 -39.5q0 -29 30 -62l42 -22q18 -9 57 -11l48 4q62 5 120 108q52 92 53 161
q1 78 -42 144q-49 75 -124 75l-20 -2q-65 0 -100 -99q-32 -93 -34 -225zM439 1113q1 -70 -68 -161t-128 -91q-19 0 -31 15q-8 14 -10 24q0 8 28 43q19 23 71 93q1 2 50 92q17 31 40 32q47 1 48 -47z" />
    <glyph glyph-name="Ocircumflex" unicode="&#xd4;" horiz-adv-x="723" 
d="M380 800q118 1 218.5 -136.5t101.5 -316.5q1 -148 -172 -254q-151 -92 -308 -93q-100 -1 -150 117q-37 87 -37 203q0 179 82 317q97 162 265 163zM220 320q-2 -6 -3 -8t-14 -23.5t-13 -39.5q0 -29 30 -62l42 -22q18 -9 57 -11l48 4q62 5 120 108q52 92 53 161
q1 78 -42 144q-49 75 -124 75l-20 -2q-65 0 -100 -99q-32 -93 -34 -225zM583 944q0 -22 -15 -37t-38 -16q-24 -1 -76 32l-112 70q-23 0 -65 -67.5t-65 -68.5q-51 -1 -53 53q-1 23 59 108q66 94 118 95q20 0 132.5 -77.5t114.5 -91.5z" />
    <glyph glyph-name="Otilde" unicode="&#xd5;" horiz-adv-x="728" 
d="M380 800q118 1 218.5 -136.5t101.5 -316.5q1 -148 -172 -254q-151 -92 -308 -93q-100 -1 -150 117q-37 87 -37 203q0 179 82 317q97 162 265 163zM220 320q-2 -6 -3 -8t-14 -23.5t-13 -39.5q0 -29 30 -62l42 -22q18 -9 57 -11l48 4q62 5 120 108q52 92 53 161
q1 78 -42 144q-49 75 -124 75l-20 -2q-65 0 -100 -99q-32 -93 -34 -225zM606 968q0 -18 -36 -51q-49 -45 -123 -45q-52 0 -83 21q-21 19 -43 39t-54 20q-28 0 -40.5 -32t-24.5 -32q-20 0 -34.5 14.5t-14.5 40.5q0 29 18 60q29 48 89 48q57 0 102.5 -40t80.5 -40q31 0 70 22
t45 22q14 0 31 -14.5t17 -32.5z" />
    <glyph glyph-name="Odieresis" unicode="&#xd6;" horiz-adv-x="723" 
d="M380 800q118 1 218.5 -136.5t101.5 -316.5q1 -148 -172 -254q-151 -92 -308 -93q-100 -1 -150 117q-37 87 -37 203q0 179 82 317q97 162 265 163zM220 320q-2 -6 -3 -8t-14 -23.5t-13 -39.5q0 -29 30 -62l42 -22q18 -9 57 -11l48 4q62 5 120 108q52 92 53 161
q1 78 -42 144q-49 75 -124 75l-20 -2q-65 0 -100 -99q-32 -93 -34 -225zM237 962q22 -1 30 -10t8 -24q0 -24 -18 -35q-12 -9 -24 -9q-17 0 -27 10q-11 17 -10 28q0 23 8.5 32t32.5 8zM432 970q23 0 30 -9.5t7 -28.5q0 -14 -14 -25q-9 -7 -27 -11q-39 0 -39 43q0 18 13 28
q1 1 23 5q6 0 7 -2z" />
    <glyph glyph-name="Ugrave" unicode="&#xd9;" horiz-adv-x="743" 
d="M684 762l27 -154l-8 -254q-20 -150 -99 -245q-90 -109 -232 -109q-165 0 -239 122q-47 78 -78 276l-21 353q-1 23 22 35q15 5 19 7l28 7l38 -9q18 -6 31 -22l-5 -107l-4 -140q-5 -176 33 -284q14 -40 36 -70q41 -58 119 -59q64 -1 104 34q25 22 68 92q66 108 66 277
q0 88 -16 168q-7 35 -16 66l13 25q8 10 31 12l33 3q26 0 34 -8zM494 969q0 -26 -31.5 -55t-57.5 -29q-185 94 -185 235q0 69 53 69q22 0 64 -62q27 -39 40 -65q22 -29 77 -43q40 -11 40 -50z" />
    <glyph glyph-name="Uacute" unicode="&#xda;" horiz-adv-x="743" 
d="M684 762l27 -154l-8 -254q-20 -150 -99 -245q-90 -109 -232 -109q-165 0 -239 122q-47 78 -78 276l-21 353q-1 23 22 35q15 5 19 7l28 7l38 -9q18 -6 31 -22l-5 -107l-4 -140q-5 -176 33 -284q14 -40 36 -70q41 -58 119 -59q64 -1 104 34q25 22 68 92q66 108 66 277
q0 88 -16 168q-7 35 -16 66l13 25q8 10 31 12l33 3q26 0 34 -8zM451 1143q1 -76 -75 -176.5t-140 -100.5q-23 0 -34 16q-9 13 -11 27q0 10 30 47q41 51 78 103q1 2 56 101q19 34 44 35q30 1 41 -13t11 -39z" />
    <glyph glyph-name="Ucircumflex" unicode="&#xdb;" horiz-adv-x="731" 
d="M684 762l27 -154l-8 -254q-20 -150 -99 -245q-90 -109 -232 -109q-165 0 -239 122q-47 78 -78 276l-21 353q-1 23 22 35q15 5 19 7l28 7l38 -9q18 -6 31 -22l-5 -107l-4 -140q-5 -176 33 -284q14 -40 36 -70q41 -58 119 -59q64 -1 104 34q25 22 68 92q66 108 66 277
q0 88 -16 168q-7 35 -16 66l13 25q8 10 31 12l33 3q26 0 34 -8zM605 983q0 -24 -16.5 -40.5t-41.5 -17.5q-27 -1 -83 35q-17 11 -124 77q-28 0 -71 -74t-72 -75q-56 -1 -58 58q-1 25 65 119q72 103 130 104q23 0 146 -86t125 -100z" />
    <glyph glyph-name="Udieresis" unicode="&#xdc;" horiz-adv-x="731" 
d="M684 762l27 -154l-8 -254q-20 -150 -99 -245q-90 -109 -232 -109q-165 0 -239 122q-47 78 -78 276l-21 353q-1 23 22 35q15 5 19 7l28 7l38 -9q18 -6 31 -22l-5 -107l-4 -140q-5 -176 33 -284q14 -40 36 -70q41 -58 119 -59q64 -1 104 34q25 22 68 92q66 108 66 277
q0 88 -16 168q-7 35 -16 66l13 25q8 10 31 12l33 3q26 0 34 -8zM216 1018q25 0 35.5 -11.5t10.5 -28.5q0 -20 -15 -37t-35 -17q-22 0 -33 12q-13 19 -13 34q1 31 10 39q14 12 40 9zM453 1028q44 0 44 -46q0 -17 -17 -30q-11 -8 -33 -14q-20 0 -33.5 13.5t-13.5 39.5
q0 21 16 34q8 2 28 6q6 0 9 -3z" />
    <glyph glyph-name="Yacute" unicode="&#xdd;" horiz-adv-x="667" 
d="M489 1113q1 -70 -68 -161t-128 -91q-19 0 -31 15q-8 14 -10 24q0 8 28 43q19 23 71 93q1 2 50 92q17 31 40 32q47 1 48 -47zM214 791q18 -12 28 -38q7 -28 8 -58q1 -21 -6 -67l-6 -41q0 -51 16 -108.5t52 -61.5l44 -5q47 0 92 80l88 158q57 84 131 84q26 -11 28 -51
q1 -15 -13 -68l-13 -51q0 -107 -47 -252.5t-133.5 -250.5t-199.5 -106q-225 -2 -243 53q-12 37 -12 52q0 19 21 20q4 0 56 -12l64 -15q21 -3 53 -3q178 0 273 194q37 75 42 131l10 105l-67 -107q-39 -51 -107 -51q-77 0 -124 28t-82 97q-48 93 -48 180v59q0 57 1 63
q6 33 36 46z" />
    <glyph glyph-name="agrave" unicode="&#xe0;" horiz-adv-x="671" 
d="M371 800q74 1 135 -137q68 -153 87 -242l77 -357l-7 -26q-5 -17 -14 -25t-19 -11l-17 -2q-17 0 -24 2l-20 6v46l1 44q2 69 -18 101t-82 32q-174 1 -217.5 -18.5t-67 -83.5t-85.5 -116l-20 -6l-22 -2q-16 0 -23 10q-3 9 -3 24q0 61 21 116q44 117 90 294q19 72 37 144
q29 93 67 142q51 64 124 65zM248 379l41 6l25 2l66 -5q17 -1 47 9q26 9 68 38q-9 64 -47 156q-37 89 -56 90l-13 1h-7q-64 0 -78 -121t-46 -176zM481 956q0 -24 -29 -50t-52 -26q-168 85 -168 213q0 63 48 63q20 0 59 -56q24 -36 36 -60q20 -26 70 -39q36 -10 36 -45z" />
    <glyph glyph-name="aacute" unicode="&#xe1;" horiz-adv-x="669" 
d="M371 800q74 1 135 -137q68 -153 87 -242l77 -357l-7 -26q-5 -17 -14 -25t-19 -11l-17 -2q-17 0 -24 2l-20 6v46l1 44q2 69 -18 101t-82 32q-174 1 -217.5 -18.5t-67 -83.5t-85.5 -116l-20 -6l-22 -2q-16 0 -23 10q-3 9 -3 24q0 61 21 116q44 117 90 294q19 72 37 144
q29 93 67 142q51 64 124 65zM248 379l41 6l25 2l66 -5q17 -1 47 9q26 9 68 38q-9 64 -47 156q-37 89 -56 90l-13 1h-7q-64 0 -78 -121t-46 -176zM439 1113q1 -70 -68 -161t-128 -91q-19 0 -31 15q-8 14 -10 24q0 8 28 43q19 23 71 93q1 2 50 92q17 31 40 32q47 1 48 -47z
" />
    <glyph glyph-name="acircumflex" unicode="&#xe2;" horiz-adv-x="676" 
d="M371 800q74 1 135 -137q68 -153 87 -242l77 -357l-7 -26q-5 -17 -14 -25t-19 -11l-17 -2q-17 0 -24 2l-20 6v46l1 44q2 69 -18 101t-82 32q-174 1 -217.5 -18.5t-67 -83.5t-85.5 -116l-20 -6l-22 -2q-16 0 -23 10q-3 9 -3 24q0 61 21 116q44 117 90 294q19 72 37 144
q29 93 67 142q51 64 124 65zM248 379l41 6l25 2l66 -5q17 -1 47 9q26 9 68 38q-9 64 -47 156q-37 89 -56 90l-13 1h-7q-64 0 -78 -121t-46 -176zM583 944q0 -22 -15 -37t-38 -16q-24 -1 -76 32l-112 70q-23 0 -65 -67.5t-65 -68.5q-51 -1 -53 53q-1 23 59 108q66 94 118 95
q20 0 132.5 -77.5t114.5 -91.5z" />
    <glyph glyph-name="atilde" unicode="&#xe3;" horiz-adv-x="677" 
d="M606 968q0 -18 -36 -51q-49 -45 -123 -45q-52 0 -83 21q-21 19 -43 39t-54 20q-28 0 -40.5 -32t-24.5 -32q-20 0 -34.5 14.5t-14.5 40.5q0 29 18 60q29 48 89 48q57 0 102.5 -40t80.5 -40q31 0 70 22t45 22q14 0 31 -14.5t17 -32.5zM670 64l-7 -26q-5 -17 -14 -25
t-19 -11l-17 -2q-17 0 -24 2l-20 6v46l1 44q2 69 -18 101t-82 32q-174 1 -217.5 -18.5t-67 -83.5t-85.5 -116l-20 -6l-22 -2q-16 0 -23 10q-3 9 -3 24q0 61 21 116q44 117 90 294q19 72 37 144q29 93 67 142q51 64 124 65q74 1 135 -137q68 -153 87 -242zM495 429
q-9 64 -47 156q-37 89 -56 90l-13 1h-7q-64 0 -78 -121t-46 -176l41 6l25 2l66 -5q17 -1 47 9q26 9 68 38z" />
    <glyph glyph-name="adieresis" unicode="&#xe4;" horiz-adv-x="684" 
d="M371 800q74 1 135 -137q68 -153 87 -242l77 -357l-7 -26q-5 -17 -14 -25t-19 -11l-17 -2q-17 0 -24 2l-20 6v46l1 44q2 69 -18 101t-82 32q-174 1 -217.5 -18.5t-67 -83.5t-85.5 -116l-20 -6l-22 -2q-16 0 -23 10q-3 9 -3 24q0 61 21 116q44 117 90 294q19 72 37 144
q29 93 67 142q51 64 124 65zM248 379l41 6l25 2l66 -5q17 -1 47 9q26 9 68 38q-9 64 -47 156q-37 89 -56 90l-13 1h-7q-64 0 -78 -121t-46 -176zM237 962q22 -1 30 -10t8 -24q0 -24 -18 -35q-12 -9 -24 -9q-17 0 -27 10q-11 17 -10 28q0 23 8.5 32t32.5 8zM432 970
q23 0 30 -9.5t7 -28.5q0 -14 -14 -25q-9 -7 -27 -11q-39 0 -39 43q0 18 13 28q1 1 23 5q6 0 7 -2z" />
    <glyph glyph-name="aring" unicode="&#xe5;" horiz-adv-x="675" 
d="M466 973q0 -48 -50 -87q-44 -34 -81 -34q-29 0 -45 28q-14 25 -14 60q0 69 23 95t76 26q91 0 91 -88zM670 64l-7 -26q-5 -17 -14 -25t-19 -11l-17 -2q-17 0 -24 2l-20 6v46l1 44q2 69 -18 101t-82 32q-174 1 -217.5 -18.5t-67 -83.5t-85.5 -116l-20 -6l-22 -2
q-16 0 -23 10q-3 9 -3 24q0 61 21 116q44 117 90 294q19 72 37 144q29 93 67 142q51 64 124 65q74 1 135 -137q68 -153 87 -242zM393 974q0 6 -8.5 12.5t-14.5 6.5q-10 0 -19.5 -16t-9.5 -25q0 -5 20 -14q32 32 32 36zM495 429q-9 64 -47 156q-37 89 -56 90l-13 1h-7
q-64 0 -78 -121t-46 -176l41 6l25 2l66 -5q17 -1 47 9q26 9 68 38z" />
    <glyph glyph-name="ccedilla" unicode="&#xe7;" horiz-adv-x="651" 
d="M678 72q0 -53 -65 -65q-37 -6 -132 0q-82 6 -101 -4q91 -26 97 -29q49 -23 49 -76q0 -61 -54 -95q-48 -31 -120 -31q-57 0 -57 34q0 40 15 50q7 3 47 6.5t74 21.5q-10 17 -49 21q-53 6 -63 10q-32 11 -35 48q-1 14 -1 26q0 19 2.5 33.5l2.5 14.5q0 4 -17 12
q-34 16 -78 44q-164 106 -164 331q0 153 105.5 269.5t250.5 116.5q63 0 142 -39q83 -41 118 -96v-28q-42 13 -106 24q-57 9 -77 9q-145 0 -213.5 -24.5t-92.5 -83.5q-19 -48 -19 -154q0 -126 61 -181q40 -35 159 -70q111 -32 207 -53q92 -20 93 -20q21 -6 21 -22z" />
    <glyph glyph-name="egrave" unicode="&#xe8;" horiz-adv-x="753" 
d="M507 810q116 1 118 -60l-25 -54q-88 -34 -191 -46q-54 -6 -74 -45q-15 -30 -13 -88q5 -159 5 -100q210 58 268 59q51 1 51 -37q0 -18 -16 -59l-184 -50q-136 -39 -137 -82q-1 -58 20 -95q25 -45 79 -45q47 0 137.5 15.5t135.5 16.5q94 2 97 -56l4 -7q3 -3 3 -12
q0 -8 -8 -16q-11 -11 -47 -18l-144 -27q-2 0 -83 -10q-17 -2 -46 -4h-29q2 0 -114 4q-51 2 -67 13q-7 5 -13 12t-11 13l-16 26l-1 155q0 75 -19 76l-25 -8q-15 -5 -37 -7q-45 0 -88 32v74q20 5 20.5 21t131.5 17q0 19 -6 114l-6 95q-6 92 64 140q44 31 158 39q44 3 108 4z
M501 956q0 -24 -29 -50t-52 -26q-168 85 -168 213q0 63 48 63q20 0 59 -56q24 -36 36 -60q20 -26 70 -39q36 -10 36 -45z" />
    <glyph glyph-name="eacute" unicode="&#xe9;" horiz-adv-x="754" 
d="M507 810q116 1 118 -60l-25 -54q-88 -34 -191 -46q-54 -6 -74 -45q-15 -30 -13 -88q5 -159 5 -100q210 58 268 59q51 1 51 -37q0 -18 -16 -59l-184 -50q-136 -39 -137 -82q-1 -58 20 -95q25 -45 79 -45q47 0 137.5 15.5t135.5 16.5q94 2 97 -56l4 -7q3 -3 3 -12
q0 -8 -8 -16q-11 -11 -47 -18l-144 -27q-2 0 -83 -10q-17 -2 -46 -4h-29q2 0 -114 4q-51 2 -67 13q-7 5 -13 12t-11 13l-16 26l-1 155q0 75 -19 76l-25 -8q-15 -5 -37 -7q-45 0 -88 32v74q20 5 20.5 21t131.5 17q0 19 -6 114l-6 95q-6 92 64 140q44 31 158 39q44 3 108 4z
M469 1113q1 -70 -68 -161t-128 -91q-19 0 -31 15q-8 14 -10 24q0 8 28 43q19 23 71 93q1 2 50 92q17 31 40 32q47 1 48 -47z" />
    <glyph glyph-name="ecircumflex" unicode="&#xea;" horiz-adv-x="758" 
d="M507 810q116 1 118 -60l-25 -54q-88 -34 -191 -46q-54 -6 -74 -45q-15 -30 -13 -88q5 -159 5 -100q210 58 268 59q51 1 51 -37q0 -18 -16 -59l-184 -50q-136 -39 -137 -82q-1 -58 20 -95q25 -45 79 -45q47 0 137.5 15.5t135.5 16.5q94 2 97 -56l4 -7q3 -3 3 -12
q0 -8 -8 -16q-11 -11 -47 -18l-144 -27q-2 0 -83 -10q-17 -2 -46 -4h-29q2 0 -114 4q-51 2 -67 13q-7 5 -13 12t-11 13l-16 26l-1 155q0 75 -19 76l-25 -8q-15 -5 -37 -7q-45 0 -88 32v74q20 5 20.5 21t131.5 17q0 19 -6 114l-6 95q-6 92 64 140q44 31 158 39q44 3 108 4z
M613 944q0 -22 -15 -37t-38 -16q-24 -1 -76 32l-112 70q-23 0 -65 -67.5t-65 -68.5q-51 -1 -53 53q-1 23 59 108q66 94 118 95q20 0 132.5 -77.5t114.5 -91.5z" />
    <glyph glyph-name="edieresis" unicode="&#xeb;" horiz-adv-x="755" 
d="M507 810q116 1 118 -60l-25 -54q-88 -34 -191 -46q-54 -6 -74 -45q-15 -30 -13 -88q5 -159 5 -100q210 58 268 59q51 1 51 -37q0 -18 -16 -59l-184 -50q-136 -39 -137 -82q-1 -58 20 -95q25 -45 79 -45q47 0 137.5 15.5t135.5 16.5q94 2 97 -56l4 -7q3 -3 3 -12
q0 -8 -8 -16q-11 -11 -47 -18l-144 -27q-2 0 -83 -10q-17 -2 -46 -4h-29q2 0 -114 4q-51 2 -67 13q-7 5 -13 12t-11 13l-16 26l-1 155q0 75 -19 76l-25 -8q-15 -5 -37 -7q-45 0 -88 32v74q20 5 20.5 21t131.5 17q0 19 -6 114l-6 95q-6 92 64 140q44 31 158 39q44 3 108 4z
M287 982q22 -1 30 -10t8 -24q0 -24 -18 -35q-12 -9 -24 -9q-17 0 -27 10q-11 17 -10 28q0 23 8.5 32t32.5 8zM482 990q23 0 30 -9.5t7 -28.5q0 -14 -14 -25q-9 -7 -27 -11q-39 0 -39 43q0 18 13 28q1 1 23 5q6 0 7 -2z" />
    <glyph glyph-name="igrave" unicode="&#xec;" horiz-adv-x="427" 
d="M297 800h105q12 -19 12 -31q0 -11 -69 -39q-72 -29 -68 -101l2 -32l5 -128q0 -26 2 -76q5 -71 6 -105q0 -38 10 -91q3 -16 13 -60q34 0 73 -17q31 -13 32 -37q1 -12 -24 -50q-8 -13 -12 -19q-8 -11 -20 -14l-40 17q-19 5 -40 7l-101 -6q-73 -4 -105 52q0 42 35 50
q32 7 81 7h30q0 43 -3.5 130t-3.5 130q0 27 -16 161l-8 67q0 35 19 77l-69 -1h-85q-38 0 -38 13q2 6 2.5 9.5t7.5 11.5l17 29q47 34 137 36q43 1 57 2q37 2 56 8zM361 956q0 -24 -29 -50t-52 -26q-168 85 -168 213q0 63 48 63q20 0 59 -56q24 -36 36 -60q20 -26 70 -39
q36 -10 36 -45z" />
    <glyph glyph-name="iacute" unicode="&#xed;" horiz-adv-x="425" 
d="M297 800h105q12 -19 12 -31q0 -11 -69 -39q-72 -29 -68 -101l2 -32l5 -128q0 -26 2 -76q5 -71 6 -105q0 -38 10 -91q3 -16 13 -60q34 0 73 -17q31 -13 32 -37q1 -12 -24 -50q-8 -13 -12 -19q-8 -11 -20 -14l-40 17q-19 5 -40 7l-101 -6q-73 -4 -105 52q0 42 35 50
q32 7 81 7h30q0 43 -3.5 130t-3.5 130q0 27 -16 161l-8 67q0 35 19 77l-69 -1h-85q-38 0 -38 13q2 6 2.5 9.5t7.5 11.5l17 29q47 34 137 36q43 1 57 2q37 2 56 8zM319 1113q1 -70 -68 -161t-128 -91q-19 0 -31 15q-8 14 -10 24q0 8 28 43q19 23 71 93q1 2 50 92q17 31 40 32
q47 1 48 -47z" />
    <glyph glyph-name="icircumflex" unicode="&#xee;" horiz-adv-x="435" 
d="M297 800h105q12 -19 12 -31q0 -11 -69 -39q-72 -29 -68 -101l2 -32l5 -128q0 -26 2 -76q5 -71 6 -105q0 -38 10 -91q3 -16 13 -60q34 0 73 -17q31 -13 32 -37q1 -12 -24 -50q-8 -13 -12 -19q-8 -11 -20 -14l-40 17q-19 5 -40 7l-101 -6q-73 -4 -105 52q0 42 35 50
q32 7 81 7h30q0 43 -3.5 130t-3.5 130q0 27 -16 161l-8 67q0 35 19 77l-69 -1h-85q-38 0 -38 13q2 6 2.5 9.5t7.5 11.5l17 29q47 34 137 36q43 1 57 2q37 2 56 8zM463 944q0 -22 -15 -37t-38 -16q-24 -1 -76 32l-112 70q-23 0 -65 -67.5t-65 -68.5q-51 -1 -53 53
q-1 23 59 108q66 94 118 95q20 0 132.5 -77.5t114.5 -91.5z" />
    <glyph glyph-name="idieresis" unicode="&#xef;" horiz-adv-x="434" 
d="M297 800h105q12 -19 12 -31q0 -11 -69 -39q-72 -29 -68 -101l2 -32l5 -128q0 -26 2 -76q5 -71 6 -105q0 -38 10 -91q3 -16 13 -60q34 0 73 -17q31 -13 32 -37q1 -12 -24 -50q-8 -13 -12 -19q-8 -11 -20 -14l-40 17q-19 5 -40 7l-101 -6q-73 -4 -105 52q0 42 35 50
q32 7 81 7h30q0 43 -3.5 130t-3.5 130q0 27 -16 161l-8 67q0 35 19 77l-69 -1h-85q-38 0 -38 13q2 6 2.5 9.5t7.5 11.5l17 29q47 34 137 36q43 1 57 2q37 2 56 8zM117 962q22 -1 30 -10t8 -24q0 -24 -18 -35q-12 -9 -24 -9q-17 0 -27 10q-11 17 -10 28q0 23 8.5 32t32.5 8z
M312 970q23 0 30 -9.5t7 -28.5q0 -14 -14 -25q-9 -7 -27 -11q-39 0 -39 43q0 18 13 28q1 1 23 5q6 0 7 -2z" />
    <glyph glyph-name="ntilde" unicode="&#xf1;" horiz-adv-x="827" 
d="M606 968q0 -18 -36 -51q-49 -45 -123 -45q-52 0 -83 21q-21 19 -43 39t-54 20q-28 0 -40.5 -32t-24.5 -32q-20 0 -34.5 14.5t-14.5 40.5q0 29 18 60q29 48 89 48q57 0 102.5 -40t80.5 -40q31 0 70 22t45 22q14 0 31 -14.5t17 -32.5zM804 724l-14 -227q-13 -83 -15 -106
q-6 -56 -6 -97q0 -106 -30 -205q-18 -60 -69 -61q-35 -1 -93 36l-339 434q-4 4 -12 7q-19 0 -28 -83q-5 -50 -5 -100q0 -179 34 -258l-7 -21q-4 -13 -10 -22q-10 -21 -42 -21q-25 0 -51 23l-24 27l-45 214q-10 48 -10 95q0 122 50.5 214t121.5 93q47 1 155 -126
q19 -23 130 -167q104 -136 122 -137q5 0 8 14q0 91 -2 172l-4 161q-3 103 20 162l34 36q17 18 42 19q28 1 51 -25q12 -17 38 -51z" />
    <glyph glyph-name="ograve" unicode="&#xf2;" horiz-adv-x="719" 
d="M380 800q118 1 218.5 -136.5t101.5 -316.5q1 -148 -172 -254q-151 -92 -308 -93q-100 -1 -150 117q-37 87 -37 203q0 179 82 317q97 162 265 163zM220 320q-2 -6 -3 -8t-14 -23.5t-13 -39.5q0 -29 30 -62l42 -22q18 -9 57 -11l48 4q62 5 120 108q52 92 53 161
q1 78 -42 144q-49 75 -124 75l-20 -2q-65 0 -100 -99q-32 -93 -34 -225zM481 956q0 -24 -29 -50t-52 -26q-168 85 -168 213q0 63 48 63q20 0 59 -56q24 -36 36 -60q20 -26 70 -39q36 -10 36 -45z" />
    <glyph glyph-name="oacute" unicode="&#xf3;" horiz-adv-x="719" 
d="M380 800q118 1 218.5 -136.5t101.5 -316.5q1 -148 -172 -254q-151 -92 -308 -93q-100 -1 -150 117q-37 87 -37 203q0 179 82 317q97 162 265 163zM220 320q-2 -6 -3 -8t-14 -23.5t-13 -39.5q0 -29 30 -62l42 -22q18 -9 57 -11l48 4q62 5 120 108q52 92 53 161
q1 78 -42 144q-49 75 -124 75l-20 -2q-65 0 -100 -99q-32 -93 -34 -225zM439 1113q1 -70 -68 -161t-128 -91q-19 0 -31 15q-8 14 -10 24q0 8 28 43q19 23 71 93q1 2 50 92q17 31 40 32q47 1 48 -47z" />
    <glyph glyph-name="ocircumflex" unicode="&#xf4;" horiz-adv-x="723" 
d="M380 800q118 1 218.5 -136.5t101.5 -316.5q1 -148 -172 -254q-151 -92 -308 -93q-100 -1 -150 117q-37 87 -37 203q0 179 82 317q97 162 265 163zM220 320q-2 -6 -3 -8t-14 -23.5t-13 -39.5q0 -29 30 -62l42 -22q18 -9 57 -11l48 4q62 5 120 108q52 92 53 161
q1 78 -42 144q-49 75 -124 75l-20 -2q-65 0 -100 -99q-32 -93 -34 -225zM583 944q0 -22 -15 -37t-38 -16q-24 -1 -76 32l-112 70q-23 0 -65 -67.5t-65 -68.5q-51 -1 -53 53q-1 23 59 108q66 94 118 95q20 0 132.5 -77.5t114.5 -91.5z" />
    <glyph glyph-name="otilde" unicode="&#xf5;" horiz-adv-x="728" 
d="M380 800q118 1 218.5 -136.5t101.5 -316.5q1 -148 -172 -254q-151 -92 -308 -93q-100 -1 -150 117q-37 87 -37 203q0 179 82 317q97 162 265 163zM220 320q-2 -6 -3 -8t-14 -23.5t-13 -39.5q0 -29 30 -62l42 -22q18 -9 57 -11l48 4q62 5 120 108q52 92 53 161
q1 78 -42 144q-49 75 -124 75l-20 -2q-65 0 -100 -99q-32 -93 -34 -225zM606 968q0 -18 -36 -51q-49 -45 -123 -45q-52 0 -83 21q-21 19 -43 39t-54 20q-28 0 -40.5 -32t-24.5 -32q-20 0 -34.5 14.5t-14.5 40.5q0 29 18 60q29 48 89 48q57 0 102.5 -40t80.5 -40q31 0 70 22
t45 22q14 0 31 -14.5t17 -32.5z" />
    <glyph glyph-name="odieresis" unicode="&#xf6;" horiz-adv-x="723" 
d="M380 800q118 1 218.5 -136.5t101.5 -316.5q1 -148 -172 -254q-151 -92 -308 -93q-100 -1 -150 117q-37 87 -37 203q0 179 82 317q97 162 265 163zM220 320q-2 -6 -3 -8t-14 -23.5t-13 -39.5q0 -29 30 -62l42 -22q18 -9 57 -11l48 4q62 5 120 108q52 92 53 161
q1 78 -42 144q-49 75 -124 75l-20 -2q-65 0 -100 -99q-32 -93 -34 -225zM237 962q22 -1 30 -10t8 -24q0 -24 -18 -35q-12 -9 -24 -9q-17 0 -27 10q-11 17 -10 28q0 23 8.5 32t32.5 8zM432 970q23 0 30 -9.5t7 -28.5q0 -14 -14 -25q-9 -7 -27 -11q-39 0 -39 43q0 18 13 28
q1 1 23 5q6 0 7 -2z" />
    <glyph glyph-name="ugrave" unicode="&#xf9;" horiz-adv-x="743" 
d="M684 762l27 -154l-8 -254q-20 -150 -99 -245q-90 -109 -232 -109q-165 0 -239 122q-47 78 -78 276l-21 353q-1 23 22 35q15 5 19 7l28 7l38 -9q18 -6 31 -22l-5 -107l-4 -140q-5 -176 33 -284q14 -40 36 -70q41 -58 119 -59q64 -1 104 34q25 22 68 92q66 108 66 277
q0 88 -16 168q-7 35 -16 66l13 25q8 10 31 12l33 3q26 0 34 -8zM494 969q0 -26 -31.5 -55t-57.5 -29q-185 94 -185 235q0 69 53 69q22 0 64 -62q27 -39 40 -65q22 -29 77 -43q40 -11 40 -50z" />
    <glyph glyph-name="uacute" unicode="&#xfa;" horiz-adv-x="743" 
d="M684 762l27 -154l-8 -254q-20 -150 -99 -245q-90 -109 -232 -109q-165 0 -239 122q-47 78 -78 276l-21 353q-1 23 22 35q15 5 19 7l28 7l38 -9q18 -6 31 -22l-5 -107l-4 -140q-5 -176 33 -284q14 -40 36 -70q41 -58 119 -59q64 -1 104 34q25 22 68 92q66 108 66 277
q0 88 -16 168q-7 35 -16 66l13 25q8 10 31 12l33 3q26 0 34 -8zM451 1143q1 -76 -75 -176.5t-140 -100.5q-23 0 -34 16q-9 13 -11 27q0 10 30 47q41 51 78 103q1 2 56 101q19 34 44 35q30 1 41 -13t11 -39z" />
    <glyph glyph-name="ucircumflex" unicode="&#xfb;" horiz-adv-x="731" 
d="M684 762l27 -154l-8 -254q-20 -150 -99 -245q-90 -109 -232 -109q-165 0 -239 122q-47 78 -78 276l-21 353q-1 23 22 35q15 5 19 7l28 7l38 -9q18 -6 31 -22l-5 -107l-4 -140q-5 -176 33 -284q14 -40 36 -70q41 -58 119 -59q64 -1 104 34q25 22 68 92q66 108 66 277
q0 88 -16 168q-7 35 -16 66l13 25q8 10 31 12l33 3q26 0 34 -8zM605 983q0 -24 -16.5 -40.5t-41.5 -17.5q-27 -1 -83 35q-17 11 -124 77q-28 0 -71 -74t-72 -75q-56 -1 -58 58q-1 25 65 119q72 103 130 104q23 0 146 -86t125 -100z" />
    <glyph glyph-name="udieresis" unicode="&#xfc;" horiz-adv-x="731" 
d="M684 762l27 -154l-8 -254q-20 -150 -99 -245q-90 -109 -232 -109q-165 0 -239 122q-47 78 -78 276l-21 353q-1 23 22 35q15 5 19 7l28 7l38 -9q18 -6 31 -22l-5 -107l-4 -140q-5 -176 33 -284q14 -40 36 -70q41 -58 119 -59q64 -1 104 34q25 22 68 92q66 108 66 277
q0 88 -16 168q-7 35 -16 66l13 25q8 10 31 12l33 3q26 0 34 -8zM216 1018q25 0 35.5 -11.5t10.5 -28.5q0 -20 -15 -37t-35 -17q-22 0 -33 12q-13 19 -13 34q1 31 10 39q14 12 40 9zM453 1028q44 0 44 -46q0 -17 -17 -30q-11 -8 -33 -14q-20 0 -33.5 13.5t-13.5 39.5
q0 21 16 34q8 2 28 6q6 0 9 -3z" />
    <glyph glyph-name="yacute" unicode="&#xfd;" horiz-adv-x="667" 
d="M489 1113q1 -70 -68 -161t-128 -91q-19 0 -31 15q-8 14 -10 24q0 8 28 43q19 23 71 93q1 2 50 92q17 31 40 32q47 1 48 -47zM214 791q18 -12 28 -38q7 -28 8 -58q1 -21 -6 -67l-6 -41q0 -51 16 -108.5t52 -61.5l44 -5q47 0 92 80l88 158q57 84 131 84q26 -11 28 -51
q1 -15 -13 -68l-13 -51q0 -107 -47 -252.5t-133.5 -250.5t-199.5 -106q-225 -2 -243 53q-12 37 -12 52q0 19 21 20q4 0 56 -12l64 -15q21 -3 53 -3q178 0 273 194q37 75 42 131l10 105l-67 -107q-39 -51 -107 -51q-77 0 -124 28t-82 97q-48 93 -48 180v59q0 57 1 63
q6 33 36 46z" />
    <glyph glyph-name="ydieresis" unicode="&#xff;" horiz-adv-x="667" 
d="M214 791q18 -12 28 -38q7 -28 8 -58q1 -21 -6 -67l-6 -41q0 -51 16 -108.5t52 -61.5l44 -5q47 0 92 80l88 158q57 84 131 84q26 -11 28 -51q1 -15 -13 -68l-13 -51q0 -107 -47 -252.5t-133.5 -250.5t-199.5 -106q-225 -2 -243 53q-12 37 -12 52q0 19 21 20q4 0 56 -12
l64 -15q21 -3 53 -3q178 0 273 194q37 75 42 131l10 105l-67 -107q-39 -51 -107 -51q-77 0 -124 28t-82 97q-48 93 -48 180v59q0 57 1 63q6 33 36 46zM266 968q25 0 35.5 -11.5t10.5 -28.5q0 -20 -15 -37t-35 -17q-22 0 -33 12q-13 19 -13 34q1 31 10 39q14 12 40 9z
M503 978q44 0 44 -46q0 -17 -17 -30q-11 -8 -33 -14q-20 0 -33.5 13.5t-13.5 39.5q0 21 16 34q8 2 28 6q6 0 9 -3z" />
    <glyph glyph-name="Scaron" unicode="&#x160;" horiz-adv-x="570" 
d="M52 1029q0 22 15 37t38 16q24 1 76 -32l112 -70q23 0 65 67.5t65 68.5q51 1 53 -53q1 -23 -59 -108q-66 -94 -118 -95q-20 0 -132.5 77.5t-114.5 91.5zM358 800q56 1 101 -13q66 -20 66 -64q0 -22 -17 -48q-10 1 -23.5 2.5t-16.5 1.5h-17q-14 1 -25 1q-76 1 -137 -24
q-55 -23 -56 -81q0 -25 113 -90q139 -80 151 -91q60 -52 61 -169q1 -102 -103 -168q-90 -57 -197 -57q-80 0 -155.5 34t-75.5 95v48q0 27 16 27q138 -69 308 -69q38 8 50 44q7 22 7 71q0 75 -84 115l-156 74q-84 51 -85 136q-1 69 103 149q99 75 172 76z" />
    <glyph glyph-name="scaron" unicode="&#x161;" horiz-adv-x="570" 
d="M52 1029q0 22 15 37t38 16q24 1 76 -32l112 -70q23 0 65 67.5t65 68.5q51 1 53 -53q1 -23 -59 -108q-66 -94 -118 -95q-20 0 -132.5 77.5t-114.5 91.5zM358 800q56 1 101 -13q66 -20 66 -64q0 -22 -17 -48q-10 1 -23.5 2.5t-16.5 1.5h-17q-14 1 -25 1q-76 1 -137 -24
q-55 -23 -56 -81q0 -25 113 -90q139 -80 151 -91q60 -52 61 -169q1 -102 -103 -168q-90 -57 -197 -57q-80 0 -155.5 34t-75.5 95v48q0 27 16 27q138 -69 308 -69q38 8 50 44q7 22 7 71q0 75 -84 115l-156 74q-84 51 -85 136q-1 69 103 149q99 75 172 76z" />
    <glyph glyph-name="Ydieresis" unicode="&#x178;" horiz-adv-x="667" 
d="M214 791q18 -12 28 -38q7 -28 8 -58q1 -21 -6 -67l-6 -41q0 -51 16 -108.5t52 -61.5l44 -5q47 0 92 80l88 158q57 84 131 84q26 -11 28 -51q1 -15 -13 -68l-13 -51q0 -107 -47 -252.5t-133.5 -250.5t-199.5 -106q-225 -2 -243 53q-12 37 -12 52q0 19 21 20q4 0 56 -12
l64 -15q21 -3 53 -3q178 0 273 194q37 75 42 131l10 105l-67 -107q-39 -51 -107 -51q-77 0 -124 28t-82 97q-48 93 -48 180v59q0 57 1 63q6 33 36 46zM266 968q25 0 35.5 -11.5t10.5 -28.5q0 -20 -15 -37t-35 -17q-22 0 -33 12q-13 19 -13 34q1 31 10 39q14 12 40 9z
M503 978q44 0 44 -46q0 -17 -17 -30q-11 -8 -33 -14q-20 0 -33.5 13.5t-13.5 39.5q0 21 16 34q8 2 28 6q6 0 9 -3z" />
    <glyph glyph-name="florin" unicode="&#x192;" horiz-adv-x="378" 
d="M223 633q0 -8 -23 -25q-28 -21 -57 -21q-25 0 -32 48q-9 52 -31 60q-69 24 -69 60q0 8 3 22t3 20q0 17 -34 53t-51 35q6 14 6 21q0 6 -5 11q-8 10 -10 13q7 -6 14 -11.5t19 -4.5q-5 -22 -5 -23q0 -6 21 -6q0 -1 -5 -14q0 -2 29 -23.5t29 -51.5q0 -7 -2.5 -19t-2.5 -18
q0 -28 32 -46q24 -14 38 -14q3 0 16 16.5t35 16.5q13 0 46 -35q36 -39 36 -64zM404 455q0 -51 -51 -70q-7 -3 -28 -4q-13 0 -13 -7q0 -2 10 -15.5t10 -20.5q0 -15 -20 -15q1 0 -48 8q-6 -20 -10 -37q0 -2 27 -22q34 -27 55 -47q-15 -21 -29 -21q-11 0 -8 0l1 -3
q12 -25 28 -57q3 -15 -9 -35q11 -9 21 -18q2 -2 2 -9q0 -14 -14 -14q-10 0 -23 7q-10 -20 -10 -33v-4v-3q0 -5 -31 -18v-35q60 0 60 -28q0 -30 -29 -30h-82h-70q-47 2 -47 28q0 10 14 24v34q-46 6 -46 43q0 5 1 15t1 14q0 11 -4 17q-2 3 -13 6t-11 12q0 10 15 31t15 33
q0 4 -6.5 9t-6.5 9q0 13 92 119q3 4 6 1q1 -2 1 -3q-1 13 -2 42q-3 49 -2 49q-1 0 -2 -5q4 1 4 3l-13 7t-14 17q0 9 9 14t10 7q-1 10 -1 19q0 81 72 81q189 0 189 -95zM146 723q-10 -3 -33 -20q17 4 18 5q7 3 15 15zM207 640q0 5 -18 33.5t-31 37.5q-9 -19 -45 -24
q1 -9 21 -88h20l30 12q23 10 23 29zM394 453q0 91 -161 91q-45 0 -61 -16.5t-16 -53.5q0 -15 2 -41q-5 2 -17 4q0 -2 -2 -5.5t-3 -5.5q7 -9 25 -12q0 -39 2 -93q-3 -15 13 -18t33 -5l38 -1l1.5 11t1.5 19h-13q-10 -8 -17 -10v27q42 -5 102 -13v13q-21 31 -22 31q-21 4 -43 7
v10q75 0 90 4q47 10 47 57zM325 225q-14 11 -58 48q20 -31 31 -65q9 4 27 17zM278 231q-17 45 -33 57q-18 1 -51 3q-26 2 -44 18q-25 -30 -84 -105q20 -20 61 -20q26 0 48 10q-1 8 -7 28h14q1 -2 3 -7q14 17 20 17q9 0 18 -14q20 18 26 18q5 0 18 -14zM336 85q-17 12 -24 24
q-8 -10 -8 -13q0 -20 21 -20zM318 133q0 5 -13 41q-7 -23 -14 -28q-10 9 -31 24q-6 -12 -9 -15q-6 -8 -21 -19q-9 13 -31 31q-21 -33 -34 -33q-6 0 -27 23v-21q36 -4 45 -15q0 -1 2 -16q19 -5 35 -5q24 0 58 10q40 11 40 23zM172 109q-6 5 -31 12q-17 4 -17 19q0 8 1.5 14
t1.5 16q-6 0 -24 4q-2 -37 -11 -57q-5 -13 -13.5 -19.5t-8.5 -9.5q4 1 10 -6q1 3 3 7l3 6h11v-21l13 -13l7 7q-1 4 -3 20h13q6 -14 21 -24q3 5 7 11q-13 17 -17 27q24 0 23 0q5 3 11 7zM295 71v31q-50 -16 -76 -16q-13 0 -24 3t-15 3q-7 0 -19 -4q4 -10 4 -16q0 -10 -13 -11
h-25q-9 -9 -18 -9q-13 0 -23 16h-13q2 -14 4.5 -27.5t20.5 -19.5q22 -7 74 -7q27 0 37 21q13 26 17 29q-2 -31 -2 -23q0 -13 24 -13q31 0 34 4q7 19 13 39zM257 -18v28l-34 3l-3 -7q3 -10 6.5 -18t18.5 -8q6 0 12 2zM318 -48q0 16 -44 24q-26 -5 -54 -11q5 -14 2 -20
q-5 -5 -9 -10h92zM90 143q-8 5 -21 17q-5 -9 -20 -44q16 -4 11 -4q20 0 30 31zM213 -28q-4 32 -4 41q-8 -4 -44 -10v-17q13 -1 48 -14zM158 -18q-3 9 -3 21q-22 0 -35 3q-1 -9 -4 -16q0 -5 8.5 -11.5t12.5 -6.5q3 0 21 10zM208 -49q0 10 -16 16q-12 5 -19 5q-10 0 -35 -6
q-29 -7 -35 -14q19 -20 60 -20q45 0 45 19zM182 490q4 4 9 1q6 -3 3 -10t-11 -2q-7 5 -1 11zM225 518q6 3 10 -4q2 -5 -0.5 -8t-7.5 -2q-4 1 -5 5q-2 7 3 9z" />
    <glyph glyph-name="circumflex" unicode="&#x2c6;" horiz-adv-x="544" 
d="M583 944q0 -22 -15 -37t-38 -16q-24 -1 -76 32l-112 70q-23 0 -65 -67.5t-65 -68.5q-51 -1 -53 53q-1 23 59 108q66 94 118 95q20 0 132.5 -77.5t114.5 -91.5z" />
    <glyph glyph-name="tilde" unicode="&#x2dc;" horiz-adv-x="566" 
d="M606 968q0 -18 -36 -51q-49 -45 -123 -45q-52 0 -83 21q-21 19 -43 39t-54 20q-28 0 -40.5 -32t-24.5 -32q-20 0 -34.5 14.5t-14.5 40.5q0 29 18 60q29 48 89 48q57 0 102.5 -40t80.5 -40q31 0 70 22t45 22q14 0 31 -14.5t17 -32.5z" />
    <glyph glyph-name="quoteleft" unicode="&#x2018;" horiz-adv-x="328" 
d="M264 598q-2 -19 -5 -28t-18 -9q-33 1 -44 32q-22 62 -31 75t-59 64q-35 36 -35 63q1 13 11.5 21t23.5 8q35 -1 98 -103q59 -95 59 -123z" />
    <glyph glyph-name="quoteright" unicode="&#x2019;" horiz-adv-x="299" 
d="M254 768q-1 -34 -67.5 -139t-92.5 -105q-38 0 -38 34q2 13 15 34.5t58 98.5q42 73 59 92q23 26 38 25q29 -1 28 -40z" />
    <glyph glyph-name="quotesinglbase" unicode="&#x201a;" horiz-adv-x="427" 
d="M384 418q0 -45 -42 -58q-28 -5 -57 -10q32 -35 32 -39q0 -12 -27 -13q4 0 -59 0v-5q0 -25 34.5 -52.5t34.5 -33.5q0 -3 -22 -18l35 -76q-1 -7 -3 -14q0 -1 -5 -9q17 -15 17 -29q0 -17 -29 -17q-1 -28 -29 -31.5t-28 -24.5q0 -17 13 -17q27 0 28 15v32q8 3 8 -33
q28 -6 33 -8q19 -7 19 -21q0 -32 -73 -32q-47 10 -47 27q0 5 11 20v31q-2 0 -6 1.5t-6 1.5q-83 -23 -87 -33l1 -9q21 -4 41.5 -9t20.5 -22q0 -25 -66 -25q-62 1 -62 22l6.5 9.5t6.5 20.5t-13 36t-13 46q0 12 4 26q-19 11 -19 19q21 52 21 55t-7 13l77 116q-4 15 -5.5 43.5
t-2.5 33t-4 7.5q-27 8 -27 25q0 8 10.5 16.5t10.5 15.5q0 3 -11.5 48.5t-16.5 57.5l-49 -212q2 -8 6 -13q8 -8 8 -9q-7 3 -14 2q3 -4 9 -14q-7 0 -11 1q-6 -8 -8 -12q0 15 -4 23q5 5 27 100q26 112 26 179q35 45 73 45q11 0 66 -93q8 0 51 -8q56 -13 81 -26q42 -23 42 -62z
M144 590v4l-9 1l-26 -10q-8 -8 -17 -16v-6h6q9 4 19 7q6 3 27 20zM195 509q0 17 -20 45q-18 24 -23 26q-10 -12 -17.5 -16t-19.5 -7q-18 -5 -28 -9q3 -9 15 -67q3 -16 20 -16q32 0 55 20q18 15 18 24zM373 418q0 44 -57 62l-96 24l-10 -1q-19 -47 -96 -53q5 -24 5 -56
l-10 -4q-8 -4 -8 -11q0 -10 10 -11l20 -2q-6 -18 -6 -37q0 -69 57 -69q41 0 41 17q0 15 -12 19l-1 -7h-11q-4 12 -4 14q0 9 12 15q7 -10 14 -10h84q-4 12 -15 23t-13 17q-14 0 -31 6q-20 7 -23 16l13 1q10 -5 32 -10q105 0 105 57zM286 206q-5 10 -32 30q17 -36 24 -36
q-1 0 8 6zM311 65q0 13 -16 18q0 -6 4 -28q12 5 12 10zM252 217q-9 17 -24 41q-22 -13 -43 -13q-23 0 -51 12l-72 -103q35 -10 46 -10q58 0 58 17q0 6 -2.5 14t-2.5 12q16 2 22.5 10.5t7.5 8.5q-3 0 28 -22q10 9 33 33zM301 112q0 16 -12 28q-7 -19 -16 -19q-4 0 -5 2
q-4 6 -15 13q-16 -30 -26 -30q-4 0 -11.5 8.5t-18.5 12.5q-15 -31 -29 -31q-5 0 -10 7t-21 15v-15q6 -3 20.5 -4.5t18.5 -4.5q3 -6 7.5 -13t24.5 -7q22 0 57.5 14t35.5 24zM325 -46q0 9 -10.5 15t-20.5 6l-63 -20v-7q26 -12 46 -12q48 0 48 18zM285 46v33l-12 1
q-15 -11 -55 -15q-49 -6 -61 -10q5 -12 5 -21q0 -19 -20 -19q-6 0 -21 11q-8 -17 -18 -17q-6 0 -13 9q-13 15 -29 28v-1q-1 -1 -1 -2l10 -36q9 -13 52 -13q57 0 70 13q7 7 7 43h8q8 -17 3 -33q5 -1 14 -2q51 0 61 31zM171 71v7q-12 9 -44 9q-4 14 -5 27q0 1 1 7t1 10h-28
q-3 -12 -0.5 -27.5t0.5 -19.5q-6 -2 -12 -3q-12 -4 -18 -22q13 -6 29 0l1 -13q-4 -12 7 -23q4 12 20 31l7.5 -15t15.5 -11q2 3 3 10q-2 7 -10 20v13h32zM85 94q0 2 -3 13q-6 -3 -19 -8l-3 6t-4 5q-2 -4 -9 -26q8 -4 10 -4q3 0 10 5t18 9zM122 -24q0 3 -3 5h-18q-11 1 -13 1
v-25q10 -4 15 -4q19 0 19 23zM183 -68q0 8 -16 14q-12 4 -22 4q-13 0 -34 -5q-26 -7 -33 -17q19 -11 52 -11q53 0 53 15zM149 435q6 2 9 -3q4 -5 -2 -9q-9 -6 -11 4q-2 7 4 8zM190 459q6 4 9.5 -1.5t1.5 -8.5q-1 -3 -6 -3t-7 3q-3 7 2 10z" />
    <glyph glyph-name="quotedblleft" unicode="&#x201c;" horiz-adv-x="444" 
d="M439 606q0 -13 -16.5 -22t-31.5 -10q-11 -1 -51 48q-45 55 -45 96q0 20 28 23q15 0 64 -59.5t52 -75.5zM268 558q0 -34 -38 -34q-26 0 -92.5 105t-67.5 139q-1 39 28 40q15 1 38 -25q17 -19 59 -92q26 -43 59 -100q12 -20 14 -33z" />
    <glyph glyph-name="quotedblright" unicode="&#x201d;" horiz-adv-x="466" 
d="M408 698q0 -16 -38 -66q-76 -100 -102 -101q-9 0 -13.5 6t-6.5 22q0 20 56 96t70 76q9 0 20.5 -11.5t13.5 -21.5zM278 795q0 -27 -35 -63q-50 -51 -59 -64t-31 -75q-11 -31 -44 -32q-15 0 -18 9t-5 28q0 28 59 123q63 102 98 103q13 0 23.5 -8t11.5 -21z" />
    <glyph glyph-name="quotedblbase" unicode="&#x201e;" horiz-adv-x="504" 
d="M531 798q0 23 -22 23q-47 0 -96 -62q-22 -28 -71 -114q-36 -62 -51 -62q-33 0 -47 -4.5l-14 -4.5q3 0 -21 4q-4 -2 -12 -11q27 -1 40 -16l10 -16q8 1 14 1q46 0 46 -46q0 -41 -43 -41q-46 0 -46 45q0 11 7.5 19.5t14.5 16.5q-24 31 -34 31q-16 0 -34 -33v-9q20 -3 32 -12
v-11h-13q-8 15 -23 15q5 0 -14 2q-8 1 -9 -4q-3 1 -6 -14q3 -3 6 -8q24 -12 47 -13v-9h-22q-7 2 -24 9q-11 5 -18 5q-36 0 -54 -15q2 -3 2 -9l130 -20q57 -12 69 -37l-1.5 -0.5t-2.5 -1.5q-23 15 -36 19v-25q39 0 51 -23q2 -4 9 -41q4 -23 24 -23q-2 0 8 3v11q-2 3 -11 18
l1 5l5 1q17 -17 17 -31q0 -18 -18 -18q-19 0 -44.5 15.5t-45.5 15.5q-13 0 -21 -10q-3 -3 -15 -25l1 -16q11 9 15 20q2 0 7 -3l-2 -14q-2 -9 2 -20q8 5 14 14t12 13q1 -6 1 -11t-1.5 -10l-1.5 -5q0 -4 12 -13q5 11 10.5 21t11.5 10q8 0 32 -16t34 -16q11 0 27.5 17t16.5 36
q0 30 -20 55q-11 14 -38 35q-20 15 -20 22q0 2 23 32.5t23 72.5q0 20 -12 43t-12 22q0 19 100.5 111t100.5 110zM301 493q0 14 -12 26.5t-27 12.5q-14 0 -26.5 -15.5t-12.5 -23.5q0 -16 12 -27.5t29 -11.5q15 0 26 11.5t11 27.5zM284 338q0 13 -18 27t-25 14q-2 0 -8 -19
q-8 -23 -9 -24q21 -2 56 -12q4 20 4 14zM148 435l-28 4l2 -14q3 -1 5 -5.5t6 -4.5q5 0 8 7q6 11 7 13zM110 442q-11 2 -24 5l7 -14q10 -4 17 9zM211 337q0 9 -29 22t-37 13q-31 0 -49 -39q1 -20 5 -20q2 0 8 11.5t8 13.5q-4 -16 -1 -33q2 1 15 -4q2 9 5 25l9 3
q0 -7 -1.5 -17t-1.5 -12q0 -7 9 -3q5 2 13 11l8 13q11 -6 19 -6q20 0 20 22zM246 227q-9 14 -12 16t-13 2q-2 0 -5.5 -1.5t-5.5 -1.5q3 -6 -1.5 -7.5t-8.5 -2.5q0 1 -3 3t-3 4q0 3 4 7q2 0 7 -2q4 -1 7 0q-8 7 -26 15q-3 -18 -3 -16q0 -12 11 -22t23 -10q16 0 29 16z
M338 194l2 13q-9 3 -27 3q-2 10 -2 17v5l1 3l-29 24h-10q-6 -31 -24 -48q-14 -12 -26 -12q-46 0 -53 49q-54 -57 -54 -88q0 -3 2.5 -13.5t3.5 -17.5h-7q-6 10 -9 12h-12q-39 0 -58 -24v-11q4 0 12 -2q5 6 14 6q0 -1 -5.5 -3.5t-5.5 -8.5q8 -12 12 -10q4 0 11.5 6t11 6t1.5 1
q-1 -3 -5 -7.5t-6 -8.5q3 -10 23 -10q14 0 43.5 10t29.5 19l-10 21t-10 28q0 26 36 26q37 0 40 -30q3 -42 30 -62v-10q-6 0 -20.5 2t-20.5 2q-28 0 -28 -28q0 -5 8 -16q3 6 10 14q-1 -5 -2 -17q11 -1 17 11h11l-6 -9q-11 -7 -11 -12q0 -10 24 -10q15 0 46.5 18t31.5 29
q0 8 -25.5 33.5t-25.5 40.5q0 13 20 16q25 3 29 8l-8 16q2 -1 11 -6t12 -5q2 0 2.5 3t0.5 6q0 7 -8.5 10.5t-8.5 5.5q0 5 1 8q15 -5 20 -3zM267 503q-2 -5 -10 -11q-2 4 -2 6q0 -4 4 8q2 0 4.5 -1t3.5 -2zM200 540q0 -3 -7 -11l-2 11h9zM113 324q-6 -2 -6 -20q-17 1 -17 27
q0 16 17 31.5t37 15.5q16 0 39 -10q32 -15 33 -15q6 11 10 37.5t2 27.5q-32 17 -66 17q-7 0 -13 -10q-7 -13 -17 -17q-4 -2 -10.5 9t-9.5 13q-1 1 -11 -5q-3 -2 -5 -2q-5 0 -10.5 13t-10.5 13q-8 0 -8 14q0 17 33.5 18t33.5 7q0 1 -2.5 4.5t-2.5 5.5q0 4 2 7t9 11
q10 -1 23 2q8 17 15 34q19 31 51 31q-3 0 8.5 4.5t45.5 4.5q11 0 49 62q51 81 79 114q52 62 98 62q31 0 31 -31q0 -26 -99 -115t-99 -108q0 -1 8.5 -19t8.5 -42q0 -39 -18.5 -68t-18.5 -39q0 -6 18 -20q24 -19 35 -34q18 -26 18 -58q0 -29 -18 -46q-10 -9 -34 -18
q-20 -7 -22 -12q9 -3 18.5 -6.5t9.5 -9.5q0 -2 -3.5 -8.5t-4.5 -6.5q-6 2 -14 0q7 0 11 -4q1 -17 0 -19q-2 -6 -8 -12q-4 7 -11 12q-2 -1 3.5 -3t6.5 -5q1 -5 -22 -9q-26 -5 -28 -6.5t-2 -3.5q0 -8 26 -39t26 -41q0 -15 -38 -34q-34 -17 -44 -17q-8 0 -21 5q-16 7 -14 15
q1 2 8 6t5 5q-5 -7 -20 -10q-2 1 1 8q1 7 0 7t-1 -6t-2 -7q-8 -3 -13 9q-5 9 -5 16q0 21 24.5 27.5t24.5 14.5q0 19 -10 42q-13 33 -36 33q-29 0 -29 -23q0 -10 8.5 -24t8.5 -24q0 -11 -20 -21q-23 -12 -54 -12q-2 0 -31 11q-2 1 5 7.5t5 7.5q-1 1 -4.5 -6t-12.5 -8
q-6 0 -14 16q5 3 8 6q1 -1 -8 -3q-8 -3 -13 2l-7 9q0 23 37 31q20 3 40 5q4 3 5 13q2 15 6 25q15 41 36.5 55t38.5 59q-10 7 -19 9q-10 -17 -34 -16q1 25 1 27l-2 -23q-7 0 -20 1q-4 5 -9 11q1 4 5 16z" />
    <glyph glyph-name="dagger" unicode="&#x2020;" horiz-adv-x="426" 
d="M382 283q-4 -8 -4 -23q-2 4 -8 12q-4 -1 -11 -1q3 4 9 14q-7 1 -14 -2q6 4 14 22l-49 212q-5 -12 -16.5 -57.5t-11.5 -48.5q0 -7 10.5 -15.5t10.5 -16.5q0 -17 -27 -25q-5 -6 -5 -24v-27q-2 -15 -7 -33l77 -116q-7 -10 -7 -13t21 -55q0 -8 -19 -19q4 -14 4 -26
q0 -21 -13 -46t-13 -36t6.5 -20.5l6.5 -9.5q0 -21 -62 -22q-66 0 -66 25q0 17 20.5 22t41.5 9l1 9q-4 10 -87 33q-2 0 -6 -1.5t-6 -1.5v-31q11 -15 11 -20q0 -17 -47 -27q-73 0 -73 32q0 14 19 21q5 2 33 8q0 36 8 33v-32q1 -15 28 -15q13 0 13 17q0 21 -28 24.5t-29 31.5
q-29 0 -29 17q0 14 17 29q-1 2 -8 23l35 76q-22 15 -22 18q0 6 34.5 33.5t34.5 52.5v5q-63 0 -59 0q-27 1 -27 13q0 4 32 39q-28 5 -57 10q-42 13 -42 58q0 39 42 62q25 13 81 26q23 2 51 8q55 93 66 93q39 0 73 -45q0 -67 26 -179q22 -95 27 -100zM308 563v6q-8 8 -17 16
l-26 10l-9 -1v-4q17 -14 46 -27h6zM313 548q-10 4 -28 9q-12 3 -18 6q-9 5 -19 17q-5 -2 -23 -26q-20 -28 -20 -45q0 -9 18 -24q23 -20 55 -20q17 0 21 16q11 58 14 67zM299 379q0 7 -6.5 10t-11.5 5q0 32 5 56q-77 6 -96 53l-10 1l-96 -24q-57 -18 -57 -62q0 -57 105 -57
q11 3 32 10l13 -1q-3 -9 -21.5 -15.5t-32.5 -6.5q-2 -6 -13 -17t-15 -23h84q7 0 14 10q12 -6 12 -15q0 -2 -4 -14h-11l-1 7q-12 -4 -12 -19q0 -17 41 -17q57 0 57 69q0 19 -6 37l20 2t10 11zM338 154l-72 103q-28 -12 -51 -12q-21 0 -43 13q-10 -18 -24 -41l33 -33
q31 22 28 22q1 0 7.5 -8.5t22.5 -10.5q0 -4 -2.5 -12t-2.5 -14q0 -17 58 -17q11 0 46 10zM353 84q-2 7 -9 26q-1 -1 -3 -5t-4 -6q-6 3 -19 8q0 -3 -3 -13q11 -4 18 -9t10 -5q2 0 10 4zM334 59q-6 18 -18 22q-6 1 -12 3q3 13 0 47h-28q0 -4 1 -10t1 -7q-2 -14 -5 -27
q-32 0 -44 -9v-7h32v-13q-3 -4 -10 -20q1 -3 3 -10q12 4 15.5 11l7.5 15q7 -4 11 -12q5 -13 9 -19q11 11 7 23l1 13q16 -6 29 0zM146 236q-27 -20 -32 -30q9 -6 8 -6q8 0 24 36zM263 103v15q-16 -8 -21 -15t-10 -7q-13 0 -29 31q-11 -4 -18.5 -12.5t-11.5 -8.5q-9 0 -26 30
q-11 -7 -14 -13q-2 -2 -6 -2q-9 0 -16 19q-12 -12 -12 -28q0 -10 35.5 -24t57.5 -14q20 0 24.5 7t7.5 13q4 3 18.5 4.5t20.5 4.5zM340 43v2q-1 0 -1 1q-16 -13 -29 -28q-7 -9 -13 -9q-10 0 -18 17q-15 -11 -21 -11q-20 0 -20 19q0 9 5 21q-12 4 -61 10q-40 4 -55 15l-12 -1
v-33q10 -31 61 -31q9 1 14 2q-5 16 3 33h8q0 -36 7 -43q13 -13 70 -13q43 0 52 13zM312 -43v25q-2 0 -12 -1h-19q-3 -2 -3 -5q0 -23 19 -23q5 0 15 4zM322 -72q-7 10 -33 17q-21 5 -34 5q-10 0 -22 -4q-16 -6 -16 -14q0 -15 53 -15q33 0 52 11zM105 83q-16 -5 -16 -18
q0 -5 12 -10q1 9 4 28zM169 -52v7q-7 3 -63 20q-10 0 -20.5 -6t-10.5 -15q0 -18 48 -18q20 0 46 12zM255 427q-2 -10 -11 -4q-6 4 -2 9q3 5 9 3q6 -1 4 -8zM212 449q-1 -3 -6 -3t-7 3t1.5 8.5t9.5 1.5q5 -3 2 -10z" />
    <glyph glyph-name="daggerdbl" unicode="&#x2021;" horiz-adv-x="464" 
d="M497 930q-2 -3 -10 -13q-5 -5 -5 -11q0 -7 6 -21q-17 1 -51 -35t-34 -53q0 -6 3 -20t3 -22q0 -36 -69 -60q-22 -8 -31 -60q-7 -48 -32 -48q-29 0 -57 21q-23 17 -23 25q0 25 36 64q33 35 46 35q22 0 35 -16.5t16 -16.5q14 0 38 14q32 18 32 46q0 6 -2.5 18t-2.5 19
q0 30 29 51.5t29 23.5q-5 12 -5 14q21 0 21 6q0 1 -5 23q12 -1 19 4.5t14 11.5zM382 117q0 -9 -11 -12t-13 -6q-4 -6 -4 -17q0 -4 1 -14t1 -15q0 -37 -46 -43v-34q14 -14 14 -24q0 -26 -47 -28h-70h-82q-29 0 -29 30q0 28 60 28v35q-31 13 -31 18v3v4q0 13 -10 33
q-13 -7 -23 -7q-14 0 -14 14q0 7 2 9q10 9 21 18q-12 20 -9 35q2 3 28 57l1 3q2 0 -8 0q-14 0 -29 21q21 20 55 47q27 20 27 22q-1 8 -10 37q-49 -8 -48 -8q-20 0 -20 15q0 7 10 20.5t10 15.5q0 7 -13 7q-21 1 -28 4q-51 19 -51 70q0 95 189 95q72 0 72 -81q0 -9 -1 -19
q1 -2 10 -7t9 -14q-1 -10 -14 -17l-13 -7q1 -2 4 -3q-1 5 -2 5q1 0 -2 -49q0 -14 -2 -42q0 1 1 3q3 3 6 -1q92 -106 92 -119q0 -4 -6.5 -9t-6.5 -9q0 -12 15 -33t15 -31zM307 703q-12 12 -33 20q10 -15 33 -20zM307 687q-36 5 -45 24q-13 -9 -31 -37.5t-18 -33.5
q0 -19 23 -29l30 -12h20q8 23 21 88zM284 426q0 2 -2 5.5t-3 5.5q-6 -1 -17 -4q2 26 2 41q0 37 -16 53.5t-61 16.5q-161 0 -161 -91q0 -47 47 -57q15 -4 90 -4v-10q-22 -3 -43 -7q-1 0 -22 -31v-13q46 5 102 13v-27q-7 2 -17 10h-13q0 -8 1.5 -19l1.5 -11l38 1q17 2 33 5
t13 18q1 28 2 93q18 3 25 12zM354 204q-34 41 -84 105q-20 -18 -48 -18q-37 1 -47 -3q-16 -12 -33 -57l11 -9q13 14 18 14q6 0 26 -18q9 14 18 14q6 0 20 -17q1 1 3 7h14l-7 -28q22 -10 48 -10q41 0 61 20zM371 116q-6 14 -20 44q-6 -6 -21 -17q10 -31 30 -31q-5 0 11 4z
M350 88q0 3 -7 9q-10 7 -15 20q-9 20 -11 57q-18 -4 -24 -4q0 -10 1.5 -16t1.5 -14q0 -15 -17 -19q-25 -7 -31 -12q6 -4 11 -7q-1 0 23 0q-4 -10 -17 -27l7 -11q15 10 21 24h13q0 -6 -3 -20l7 -7l13 13v21h11l3 -6t3 -7q6 7 10 6zM153 273q-17 -11 -58 -48q9 -5 27 -17
q11 34 31 65zM282 136v21q-21 -23 -27 -23q-13 0 -34 33q-8 -4 -31 -31q-20 14 -30 34q-8 -5 -31 -24q-7 5 -14 28q-13 -36 -13 -41q0 -12 40 -23q34 -10 58 -10q16 0 35 5q2 15 3 16q8 11 44 15zM347 68h-13q-10 -16 -23 -16q-15 0 -18 9h-25q-13 1 -13 11q0 6 4 16
q-12 4 -19 4q-4 0 -15 -3t-24 -3q-26 0 -76 16v-31q7 -20 13 -39q3 -4 34 -4q24 0 24 13q0 -8 -2 23q4 -3 17 -29q10 -21 37 -21q52 0 74 7q18 6 22 20q1 13 3 27zM304 -10q-1 3 -4 16q-13 -3 -35 -3q0 -12 -3 -21q18 -10 21 -10q4 0 12.5 6.5t8.5 11.5zM255 -14v17
q-5 0 -44 10q0 -9 -4 -41q17 9 48 14zM317 -48q-6 7 -35 14q-25 6 -35 6q-7 0 -19 -5q-16 -6 -16 -16q0 -19 45 -19q41 0 60 20zM116 96q0 3 -8 13q-7 -12 -24 -24l11 -9q21 0 21 20zM200 6l-3 7l-34 -3v-28q6 -2 12 -2q15 0 18.5 8t6.5 18zM207 -65q-4 5 -9 10q-3 6 2 20
q-33 7 -54 11q-44 -8 -44 -24l13 -17h92zM238 490q6 -6 0.5 -10t-9.5 -2t-4 7q0 4 4 6q5 3 9 -1zM198 509q-1 -4 -5 -5q-5 -1 -7.5 2t-0.5 8q4 7 10 4q4 -2 3 -9z" />
    <glyph glyph-name="bullet" unicode="&#x2022;" horiz-adv-x="637" 
d="M595 338q0 -8 -33 -42q-39 -41 -84 -67q-60 -35 -116 -35q-40 0 -52 27q-3 5 -10 51q-5 30 -25 34q-6 1 -25 -4q-23 -7 -43 -7h-145q-3 2 -7.5 5.5t-4.5 15.5q0 38 40 38q14 0 45.5 -5.5t45.5 -5.5q63 0 85 12q19 10 19 37q0 21 10 40q12 23 31 23q2 0 29 -15
q35 -19 117 -37q61 -13 78 -20q45 -17 45 -45z" />
    <glyph glyph-name="ellipsis" unicode="&#x2026;" horiz-adv-x="655" 
d="M641 360q0 -20 -19 -20q-7 0 -16 3q0 -12 1 -24q-1 -13 -13 -13q1 0 -18 13q-22 15 -54 24q-47 13 -115 13q-16 0 -20 -8t-4 -47q0 -49 30 -71q27 -13 56 -27t29 -47q0 -5 -6 -20q-7 -20 -8 -23q11 0 28 5q52 -12 52 -32q0 -10 -35 -27.5t-42 -17.5q-10 0 -57 12
q-56 14 -56 25q0 18 35.5 39.5t35.5 34.5q0 8 -24.5 20t-47.5 12l-10 -1.5t-21 -1.5q0 -6 2.5 -17t2.5 -18q0 -17 -12.5 -33t-19.5 -16q-41 -13 -95 -33q17 -7 34 -15q10 -5 10 -15q0 -13 -29 -26t-55 -13q-92 22 -92 56q17 55 88 55q13 0 56 9q54 10 54 21q0 25 -36 38
t-36 45q0 40 38 34q3 18 0 28q-4 14 -4 16q0 13 7 32q13 33 14 38h-69q-22 -2 -67 -12q12 -15 12 -20q0 -20 -17 -20q-3 0 -11 4t-10 4q-1 0 -5.5 -8.5t-21.5 -8.5q-15 0 -15 15q0 7 4 16h-41q0 5 -2 14q0 13 18 19t19 8l-3 12t-3 20q0 24 21 24q10 0 13 -18t5 -18
q12 8 57 21q45 6 83 6q24 0 46 -3q15 -1 16 -1q11 7 11 40q0 54 -74 88q-69 25 -139 50q-74 29 -74 70q0 35 42 35q50 0 159.5 -71.5t113.5 -71.5q13 0 13 15q0 29 -88.5 109t-88.5 105q0 19 12 32t26 13q55 0 108 -66q32 -41 84 -141q16 -32 23 -54q4 -15 6 -16
q11 -1 22 -1q18 -3 15 -25q-1 -5 2 -14t3 -13q0 -6 -4 -11.5t-4 -6.5t7 -6t7 -13q1 -11 -11 -12q-8 -1 -16 -1q-3 -1 -4 -1q25 6 36 4q9 -2 25 -11.5t15 -14.5q-2 -15 -14 -15q-4 0 -15 2.5t-18 2.5q-5 0 -9 -1l-7 -7q-9 -7 -22 -7q-7 0 -17 12q-7 -3 -23 -15l145 -18
q5 36 17 36q6 0 21 -20q17 17 26 17q15 0 15 -14q0 -10 -9 -24q26 -13 26 -21zM467 500q-15 -3 -18 -3v14h12q-15 15 -21 15q-2 0 -5.5 -2.5t-5.5 -2.5q2 -4 5 -23q1 -6 18 -6q9 0 15 8zM425 498q0 8 -9.5 18t-21.5 10q-11 0 -19 -10t-8 -20q0 -8 9 -18t21 -10q10 0 19 10.5
t9 19.5zM635 361q-8 5 -25.5 7.5t-21.5 12.5q29 0 29 23q0 2 -1 3.5t-1 2.5h-12q-6 -8 -29 -26q-2 8 -4.5 15.5t-10.5 13.5q0 -2 -3 -6t-3 -7l1.5 -6t2.5 -13q-1 0 -18 -3l-139 14q-6 -18 -9 -29l94 -6q75 -7 109 -45q6 8 6 10q0 6 -12 24v15q19 -13 29 -13t18 13zM455 419
q-6 4 -17 8q-1 -1 -2 -3.5t-2 -4.5q8 -1 21 0zM420 431q-11 0 -16 3q-2 -3 -7 -9q9 -6 11 -6q4 0 12 12zM388 436h-14q-8 -5 -18 -15q2 0 6 -2q16 2 26 17zM559 88q-17 18 -63 18q-11 0 -22 -7q-6 -4 -13 -9q0 2 -3 6q10 16 21 33t11 29q0 25 -32 40q-53 25 -64 34
q-2 -9 -15 -18.5t-30 -9.5q-29 0 -44 32q-13 27 -13 65q0 66 30 83q13 7 66 8q2 15 0 24q-15 -9 -25 -9q-20 0 -20 14q0 9 14 18t22 9q21 0 72.5 -13t50.5 -13q8 0 17 9q0 2 -1 6q-14 8 -55 12q-35 4 -33 7l21 4q15 -7 23 8q-4 12 -12 13q9 -1 -16 -1q-14 0 -25 -12t-25 -12
q-17 0 -29 11.5t-12 27.5q0 27 16 36q11 7 40 7q4 0 13.5 -2t15.5 -2q12 0 21 7q-10 8 -13 8q-11 -3 -22 -5q-26 110 -102 200q-68 81 -111 81q-10 0 -20.5 -10.5t-10.5 -23.5q0 -17 88.5 -98.5t88.5 -118.5q0 -21 -22 -21q-18 0 -70 37q-78 56 -100 69q-63 37 -106 37
q-13 0 -21.5 -9.5t-8.5 -16.5q0 -27 74 -54q116 -43 136 -55q74 -40 74 -99v-36q-4 -12 -29 -12q-96 0 -142 -7q-31 -5 -43 -14t-20 -9q6 11 0 41q-15 -13 -15 -26q0 -5 4 -15.5t5 -16.5q-18 0 -23 -2t-18 -16q3 -1 9 -6q9 2 32 12h14v-9q-18 -17 -18 -23q0 -1 2 -4t2.5 -4
t2.5 -1.5t3 -1.5q15 8 23 28h8q6 -17 19 -17q3 0 4.5 5t3.5 6q-6 4 -12 9t-6 12q0 9 49 15q41 6 71 6q23 0 57 -7v-8q-20 0 -30.5 -20.5t-10.5 -45.5q0 -27 12 -47v-12h-11q-13 13 -15 13t-11 -9.5t-9 -11.5q0 -1 11 -5t11 -8q0 -2 -0.5 -3t-1.5 -5q-12 0 -19 -3q8 2 13 0
q-2 -9 -6 -15q2 0 6 -2q7 3 15 11h8q0 -7 -2 -15q14 -4 25 -19t11 -28q0 -21 -51 -29q-47 -6 -95 -13q-51 -12 -51 -43q0 -15 43 -32q36 -15 47 -15q5 0 21 2q-6 11 -12 12v11h12q7 -8 9 -14q8 2 14 3q0 5 -2 17h12q2 -12 2 -14q12 4 12 13q0 21 -61 21q-18 0 -32 -2
q0 2 -1 5.5t-2 5.5q55 12 110 23q69 18 69 60q0 16 -8 31v15q10 -4 20 -3q17 3 21 3q38 0 62 -14q19 -12 19 -24q0 -22 -28 -39q-34 -21 -41 -40q13 -5 58 -16q42 -10 45 -10q16 0 16 12q0 3 -3 9t-3 8h11q4 -7 9 -17q4 3 11 10q-3 17 -3 16h10q2 -6 2 -15q15 4 16 5
q4 5 7 10zM384 240q0 3 -5 19.5t-5 45.5q0 24 9 73q-24 7 -22 7q-28 0 -43 -27q-14 -23 -14 -57q0 -85 45 -85q35 0 35 24zM417 494q-6 -3 -8 -3q-4 12 -4 8q0 4 3 5t3 2l6 -3v-9zM368 248q-2 -4 -8 -10v12q2 0 4.5 -0.5t3.5 -1.5z" />
    <glyph glyph-name="trademark" unicode="&#x2122;" horiz-adv-x="962" 
d="M925 543q0 -72 -3 -96q-9 -72 -42 -72q-29 0 -43 40q-10 36 -20 73q-14 40 -45 40q-12 0 -35.5 -15.5t-25.5 -15.5q-24 0 -92 54q-16 -24 -46 -102q-20 -52 -43 -52q-36 0 -36 53q0 18 4.5 47t4.5 32q0 46 -25 88q-30 49 -74 49q-86 0 -86 -89q0 -23 7.5 -73t7.5 -70
q0 -59 -49 -59q-34 0 -54 92q-10 61 -19.5 121t-50.5 76q-34 7 -68.5 14t-34.5 47q0 33 62 55q48 17 85 17q22 0 106 -8q108 -11 148 -23q24 -8 67 -7t48 0q9 -4 52 -56q36 -44 75 -44q27 0 67 57.5t78 57.5q32 0 54 -54q26 -64 26 -177z" />
    <glyph glyph-name="periodcentered" unicode="&#xb7;" horiz-adv-x="260" 
d="M201 412q1 -38 -23 -59q-15 -13 -55 -14q-39 -1 -63 33q-12 17 -12 48q0 24 18 42q32 32 69 33q20 0 33 -11l18 -22q14 -17 15 -50z" />
    <glyph glyph-name="periodcentered" unicode="&#x2219;" horiz-adv-x="260" 
d="M201 412q1 -38 -23 -59q-15 -13 -55 -14q-39 -1 -63 33q-12 17 -12 48q0 24 18 42q32 32 69 33q20 0 33 -11l18 -22q14 -17 15 -50z" />
    <glyph glyph-name="nonbreakingspace" unicode="&#xa0;" horiz-adv-x="301" 
 />
    </font>
</defs>
</svg>
